<svg xmlns="http://www.w3.org/2000/svg" viewBox="0 0 122.19 348.37"><title>bracket</title><path d="M351.76,390v56.5c0,29.66,11.64,40.54,42.42,40.54h8.45v32.85H388.36c-51.62,0-75.27-21.4-75.27-68.88V402.54c0-29.47-8.26-39.23-32.66-39.23v-43c24.4,0,32.66-9.95,32.66-39.6v-42c0-46.55,23.46-67.2,75.27-67.2h14.27v32.85h-8.45c-31,0-42.42,10.7-42.42,40.73v50.68c0,27.22-11.82,42.23-35.66,44.48v3.19C339.56,345.66,351.76,361.81,351.76,390Z" transform="translate(-280.44 -171.48)" style="fill:#3ea3ff"/></svg>