<svg xmlns="http://www.w3.org/2000/svg" viewBox="0 0 1920 1080"><title>colorbg</title><path d="M1105.28,729l0.16-.38c3,1,5.2-.23,6.61-3.5l2.64-6.12c1.57-3.64,3.45-4.35,7.24-2.71l1,0.44,1.71-4-1.72-.74c-6.25-2.7-10.15-1.47-12.61,4.21l-2.18,5.06c-1.55,3.58-3.07,4.34-6,3.07l-2.24,5.19c2.93,1.27,3.43,2.88,1.89,6.44l-2.52,5.83c-2.48,5.74-.73,9.55,5.5,12.24l1.72,0.74,1.72-4-1-.44c-3.71-1.6-4.55-3.52-3-7.09l2.95-6.82C1108.61,733.13,1108,730.54,1105.28,729Z" style="fill:#3ea3ff"/><path d="M66.63,191.48l-0.41.08c-0.86-3-3.09-4.19-6.6-3.53l-6.55,1.22c-3.89.73-5.54-.44-6.29-4.49l-0.2-1.09-4.24.79,0.34,1.85c1.25,6.69,4.45,9.24,10.53,8.11l5.41-1c3.83-.71,5.31.12,5.9,3.27l5.56-1c-0.59-3.14.47-4.45,4.28-5.16l6.25-1.16c6.14-1.14,8.33-4.72,7.09-11.39l-0.34-1.85-4.26.79L83.3,178c0.74,4-.38,5.74-4.21,6.45l-7.3,1.36C68.16,186.44,66.37,188.41,66.63,191.48Z" style="fill:#3ea3ff"/><path d="M519.44,38.48l-0.28-.31c2.12-2.32,1.93-4.83-.47-7.47l-4.49-4.93c-2.67-2.93-2.54-4.94.51-7.71l0.82-.75-2.9-3.19-1.39,1.26c-5,4.58-5.52,8.65-1.35,13.22l3.71,4.07c2.62,2.88,2.69,4.58.33,6.73l3.81,4.18c2.36-2.15,4-1.94,6.64.92l4.28,4.7c4.21,4.62,8.4,4.6,13.42,0L543.47,48l-2.92-3.2-0.82.75c-3,2.72-5.08,2.7-7.7-.19l-5-5.49C524.54,37.13,521.92,36.64,519.44,38.48Z" style="fill:#3ea3ff"/><path d="M448.44,280.61l-0.39-.15c0.85-3-.45-5.18-3.79-6.46L438,271.63c-3.7-1.41-4.5-3.26-3-7.11l0.4-1-4-1.54-0.67,1.75c-2.43,6.36-1,10.21,4.76,12.41l5.15,2c3.64,1.39,4.47,2.87,3.33,5.86l5.28,2c1.14-3,2.72-3.55,6.35-2.17l5.94,2.26c5.84,2.23,9.57.32,12-6l0.67-1.75-4-1.54-0.4,1c-1.44,3.78-3.31,4.7-7,3.31l-6.94-2.65C452.38,277.1,449.82,277.85,448.44,280.61Z" style="fill:#3ea3ff"/><path d="M262.79,882.78l-0.26-.32c2.25-2.17,2.22-4.67,0-7.44l-4.14-5.17c-2.46-3.07-2.21-5.06,1-7.62l0.86-.69-2.68-3.34-1.46,1.17c-5.28,4.23-6,8.24-2.16,13l3.42,4.27c2.42,3,2.38,4.71-.1,6.7l3.51,4.38c2.48-2,4.12-1.68,6.53,1.33l4,4.93c3.89,4.85,8,5.09,13.31.87l1.46-1.17-2.69-3.36-0.86.69c-3.14,2.51-5.2,2.36-7.63-.66l-4.62-5.76C267.94,881.75,265.37,881.11,262.79,882.78Z" style="fill:#3ea3ff"/><path d="M1551.35,314.7v-0.41c3.13-.38,4.62-2.4,4.51-6l-0.19-6.66c-0.11-4,1.29-5.4,5.41-5.52l1.11,0-0.12-4.31-1.88.05c-6.8.19-9.82,3-9.64,9.15l0.16,5.51c0.11,3.9-.94,5.23-4.14,5.32l0.16,5.65c3.2-.09,4.33,1.16,4.44,5l0.18,6.35c0.18,6.25,3.37,9,10.16,8.77l1.88-.05-0.12-4.33-1.11,0c-4,.12-5.61-1.26-5.72-5.16l-0.21-7.42C1556.1,317,1554.44,314.92,1551.35,314.7Z" style="fill:#3ea3ff"/><path d="M1719.89,71.75l-0.19-.37c2.66-1.68,3.14-4.15,1.52-7.33l-3-5.93c-1.8-3.53-1.15-5.43,2.52-7.31l1-.51-2-3.84-1.67.85c-6.06,3.1-7.6,6.89-4.78,12.4l2.5,4.9c1.77,3.47,1.39,5.13-1.46,6.58l2.57,5c2.85-1.45,4.4-.81,6.17,2.64l2.89,5.66c2.84,5.57,6.89,6.65,12.94,3.56l1.67-.85-2-3.86-1,.51c-3.6,1.84-5.61,1.27-7.38-2.21l-3.38-6.61C1725.17,71.79,1722.77,70.63,1719.89,71.75Z" style="fill:#3ea3ff"/><path d="M1877.26,35l-0.3-.29c2-2.45,1.61-4.93-.95-7.4l-4.78-4.61c-2.84-2.74-2.85-4.75,0-7.71l0.77-.8-3.1-3-1.3,1.35c-4.71,4.89-4.93,9-.49,13.25l4,3.81c2.8,2.7,3,4.38.76,6.68l4.06,3.91c2.21-2.3,3.89-2.19,6.67.49l4.56,4.4c4.49,4.33,8.66,4,13.36-.84l1.3-1.35-3.11-3-0.77.8c-2.8,2.9-4.88,3-7.68.31l-5.33-5.14C1882.25,33.35,1879.61,33,1877.26,35Z" style="fill:#3ea3ff"/><path d="M1477.91,62.29l-0.4.1c-1-3-3.3-4-6.77-3.18l-6.48,1.56c-3.85.93-5.55-.15-6.52-4.16l-0.26-1.08-4.19,1,0.44,1.82c1.6,6.62,4.93,9,10.94,7.55l5.35-1.29c3.79-.91,5.31-0.16,6.06,3l5.49-1.33c-0.75-3.11.24-4.47,4-5.38l6.18-1.49c6.08-1.47,8.07-5.15,6.48-11.75l-0.44-1.82-4.21,1,0.26,1.08c0.95,3.93-.08,5.75-3.87,6.66l-7.22,1.74C1479.17,57.17,1477.49,59.23,1477.91,62.29Z" style="fill:#3ea3ff"/><path d="M244.55,84.92l-0.29-.3c2.05-2.38,1.79-4.87-.68-7.43L239,72.41c-2.74-2.84-2.68-4.85.29-7.71l0.8-.77-3-3.1-1.35,1.3c-4.89,4.71-5.25,8.78-1,13.22l3.81,4c2.7,2.8,2.81,4.49.52,6.7L243,90.07c2.3-2.21,4-2.05,6.65.73l4.4,4.56c4.33,4.49,8.5,4.34,13.38-.35l1.35-1.3-3-3.11-0.8.77c-2.9,2.8-5,2.83-7.68,0l-5.14-5.33C249.6,83.43,247,83,244.55,84.92Z" style="fill:#3ea3ff"/><path d="M161.83,128.58l-0.35-.22c1.4-2.8.54-5.15-2.48-7l-5.64-3.5c-3.35-2.08-3.78-4-1.61-7.53l0.59-.94-3.65-2.27-1,1.59c-3.58,5.76-2.94,9.79,2.3,13l4.66,2.89c3.3,2,3.82,3.66,2.14,6.36l4.78,3c1.68-2.71,3.34-3,6.62-.92l5.38,3.34c5.29,3.29,9.3,2.12,12.87-3.62l1-1.59-3.67-2.28-0.59.94c-2.13,3.42-4.13,4-7.43,1.92l-6.28-3.9C166.35,125.9,163.7,126.15,161.83,128.58Z" style="fill:#3ea3ff"/><path d="M775.57,260.43l-0.22-.34c2.46-1.95,2.67-4.44.72-7.42l-3.63-5.55c-2.16-3.3-1.72-5.26,1.72-7.5l0.93-.61-2.35-3.59-1.56,1c-5.67,3.71-6.79,7.63-3.42,12.79l3,4.59c2.12,3.25,1.92,4.93-.74,6.67l3.08,4.71c2.66-1.74,4.27-1.27,6.38,2l3.46,5.29c3.41,5.21,7.53,5.85,13.18,2.15l1.56-1L795.33,270l-0.93.61c-3.37,2.2-5.42,1.85-7.54-1.4l-4-6.19C780.8,259.91,778.3,259,775.57,260.43Z" style="fill:#3ea3ff"/><path d="M707.41,444.18L707,444c1.09-2.94,0-5.18-3.23-6.71l-6-2.86c-3.55-1.7-4.19-3.6-2.42-7.3l0.48-1L692,424.28,691.21,426c-2.92,6.11-1.85,10,3.71,12.69l4.94,2.37c3.5,1.67,4.2,3.21,2.82,6.08l5.07,2.43c1.37-2.87,3-3.3,6.47-1.64l5.7,2.73c5.61,2.68,9.46,1.09,12.38-5l0.81-1.68-3.89-1.86-0.48,1c-1.74,3.63-3.67,4.39-7.17,2.71l-6.66-3.19C711.6,441,709,441.55,707.41,444.18Z" style="fill:#3ea3ff"/><path d="M1688.8,243.68l-0.34-.23c1.51-2.75.74-5.14-2.22-7.13l-5.51-3.72c-3.27-2.21-3.63-4.18-1.33-7.6l0.62-.92-3.56-2.4-1,1.55c-3.8,5.63-3.3,9.68,1.81,13.13l4.55,3.07c3.22,2.17,3.69,3.8,1.91,6.45l4.67,3.15c1.78-2.64,3.45-2.83,6.66-.67l5.25,3.54c5.17,3.49,9.22,2.47,13-3.14l1-1.55-3.58-2.42-0.62.92c-2.25,3.34-4.28,3.81-7.51,1.64l-6.14-4.14C1693.43,241.17,1690.77,241.31,1688.8,243.68Z" style="fill:#3ea3ff"/><path d="M1872,229.76l-0.24-.34c2.39-2,2.52-4.52.48-7.42l-3.8-5.42c-2.26-3.22-1.88-5.19,1.47-7.54l0.91-.64-2.46-3.51-1.53,1.07c-5.54,3.88-6.53,7.83-3,12.87l3.14,4.48c2.22,3.17,2.08,4.86-.53,6.68l3.22,4.6c2.6-1.82,4.22-1.41,6.43,1.75l3.62,5.17c3.57,5.09,7.7,5.59,13.23,1.72l1.53-1.07-2.47-3.53-0.91.64c-3.29,2.31-5.35,2-7.57-1.16l-4.24-6C1877.22,229.08,1874.7,228.26,1872,229.76Z" style="fill:#3ea3ff"/><path d="M1697.21,543.09l0.3,0.28c-1.95,2.47-1.58,5,1,7.41l4.83,4.59c2.87,2.73,2.9,4.74.06,7.73l-0.77.81,3.13,3,1.29-1.36c4.69-4.94,4.87-9,.38-13.29l-4-3.79c-2.83-2.68-3-4.37-.82-6.69l-4.1-3.89c-2.2,2.32-3.88,2.23-6.69-.44l-4.61-4.37c-4.53-4.3-8.71-4-13.38.95l-1.29,1.36,3.14,3,0.77-.81c2.78-2.93,4.87-3.06,7.69-.38l5.39,5.11C1692.22,544.81,1694.87,545.11,1697.21,543.09Z" style="fill:#3ea3ff"/><path d="M492.67,655l-0.24-.34c2.39-2.05,2.5-4.57.42-7.47L489,641.77c-2.3-3.22-1.94-5.21,1.42-7.6l0.91-.65-2.5-3.51-1.53,1.09c-5.54,4-6.51,7.93-2.91,13l3.2,4.48c2.26,3.17,2.13,4.87-.48,6.72l3.28,4.6c2.6-1.86,4.24-1.45,6.49,1.71l3.69,5.17c3.63,5.09,7.79,5.57,13.32,1.63l1.53-1.09-2.51-3.53-0.91.65c-3.29,2.35-5.36,2.07-7.62-1.1l-4.31-6C497.9,654.27,495.35,653.47,492.67,655Z" style="fill:#3ea3ff"/><path d="M110.6,498.54l-0.41,0c0-3.15-1.81-4.88-5.36-5.22l-6.63-.64c-3.94-.38-5.2-2-4.8-6.06l0.11-1.11L89.22,485,89,486.91c-0.66,6.77,1.71,10.11,7.87,10.71l5.48,0.53c3.88,0.38,5.07,1.59,4.76,4.77l5.63,0.55c0.31-3.18,1.69-4.15,5.55-3.77l6.32,0.61c6.22,0.6,9.31-2.22,10-9l0.18-1.87-4.31-.42-0.11,1.11c-0.39,4-2,5.41-5.84,5l-7.39-.72C113.47,494.11,111.2,495.51,110.6,498.54Z" style="fill:#3ea3ff"/><path d="M120.52,376.21H120.1c-0.37-3.13-2.39-4.62-6-4.52l-6.66.18c-4,.11-5.4-1.3-5.51-5.42l0-1.11-4.31.12,0.05,1.88c0.18,6.8,2.95,9.82,9.13,9.66l5.51-.15c3.9-.11,5.23,1,5.31,4.15l5.65-.15c-0.09-3.2,1.16-4.32,5-4.43l6.35-.17c6.25-.17,9-3.36,8.78-10.14l-0.05-1.88-4.33.12,0,1.11c0.11,4-1.27,5.61-5.17,5.71l-7.42.2C122.82,371.46,120.74,373.13,120.52,376.21Z" style="fill:#3ea3ff"/><path d="M245.39,371.68l-0.38-.17c1-3-.13-5.2-3.38-6.68l-6.07-2.75c-3.61-1.64-4.29-3.53-2.58-7.29l0.46-1L229.52,352l-0.78,1.71c-2.81,6.2-1.65,10.12,4,12.68l5,2.28c3.55,1.61,4.28,3.14,3,6.05l5.15,2.34c1.32-2.91,2.94-3.38,6.47-1.78l5.79,2.63c5.69,2.58,9.53.91,12.34-5.27l0.78-1.71-3.94-1.79-0.46,1c-1.67,3.68-3.6,4.48-7.15,2.87l-6.76-3.07C249.54,368.42,246.94,369,245.39,371.68Z" style="fill:#3ea3ff"/><path d="M1434.91,737.27l0.08,0.4c-3,.89-4.16,3.13-3.47,6.63l1.28,6.54c0.76,3.89-.38,5.54-4.43,6.34l-1.09.21,0.83,4.23,1.84-.36c6.68-1.31,9.2-4.54,8-10.61l-1.06-5.4c-0.75-3.83.07-5.31,3.21-5.93l-1.09-5.55c-3.14.62-4.46-.43-5.2-4.23l-1.22-6.23c-1.2-6.13-4.8-8.29-11.46-7l-1.84.36,0.83,4.25,1.09-.21c4-.78,5.74.32,6.49,4.15l1.43,7.29C1429.85,735.78,1431.84,737.55,1434.91,737.27Z" style="fill:#3ea3ff"/><path d="M1737.28,852.75l0.18,0.37c-2.71,1.6-3.27,4-1.75,7.28l2.84,6c1.69,3.58,1,5.47-2.75,7.22l-1,.47,1.84,3.9,1.7-.8c6.16-2.9,7.82-6.64,5.18-12.24l-2.35-5c-1.66-3.53-1.22-5.17,1.67-6.53l-2.41-5.11c-2.89,1.36-4.43.67-6.08-2.84l-2.71-5.75c-2.66-5.65-6.67-6.87-12.81-4l-1.7.8,1.84,3.92,1-.47c3.66-1.72,5.64-1.08,7.31,2.44l3.16,6.72C1732,852.54,1734.37,853.78,1737.28,852.75Z" style="fill:#3ea3ff"/><path d="M1508.16,521.6l0.24,0.34c-2.38,2.06-2.48,4.57-.4,7.47l3.88,5.41c2.31,3.22,2,5.2-1.4,7.6l-0.91.65,2.51,3.5,1.53-1.09c5.53-4,6.48-7.95,2.88-13l-3.21-4.48c-2.27-3.17-2.14-4.86.46-6.72l-3.29-4.59c-2.6,1.86-4.23,1.46-6.49-1.69l-3.7-5.16c-3.64-5.08-7.81-5.54-13.32-1.59l-1.53,1.09,2.52,3.52,0.91-.65c3.29-2.36,5.35-2.09,7.63,1.08l4.33,6C1502.93,522.35,1505.48,523.14,1508.16,521.6Z" style="fill:#3ea3ff"/><path d="M1850.21,696.15l0.27,0.31c-2.16,2.29-2,4.8.36,7.47l4.41,5c2.62,3,2.47,5-.62,7.71l-0.83.74,2.85,3.23,1.41-1.24c5.1-4.51,5.64-8.57,1.55-13.2L1856,702c-2.58-2.92-2.62-4.62-.23-6.74l-3.74-4.23c-2.4,2.12-4.06,1.88-6.63-1l-4.21-4.76c-4.14-4.68-8.33-4.72-13.42-.23l-1.41,1.24,2.87,3.25,0.83-.74c3-2.68,5.12-2.62,7.7.3l4.92,5.56C1845.09,697.42,1847.7,698,1850.21,696.15Z" style="fill:#3ea3ff"/><path d="M767.59,642l0.28,0.3c-2.09,2.36-1.86,4.86.58,7.46l4.56,4.86c2.71,2.89,2.62,4.9-.39,7.72l-0.81.76,3,3.14,1.37-1.28c5-4.66,5.38-8.73,1.15-13.24l-3.77-4c-2.67-2.84-2.76-4.54-.43-6.73l-3.87-4.12c-2.33,2.19-4,2-6.66-.82l-4.35-4.63c-4.28-4.56-8.47-4.47-13.42.17l-1.37,1.28,3,3.16,0.81-.76c2.95-2.77,5-2.77,7.7.07L760,640.7C762.51,643.39,765.14,643.84,767.59,642Z" style="fill:#3ea3ff"/><path d="M837.47,872.13l-0.41-.07c0.25-3.14-1.43-5-4.95-5.61l-6.56-1.14c-3.9-.68-5-2.34-4.33-6.41l0.19-1.1-4.25-.74-0.32,1.85c-1.17,6.71.94,10.21,7,11.27l5.43,0.94c3.84,0.67,4.93,2,4.39,5.12l5.57,1c0.55-3.15,2-4,5.82-3.34l6.26,1.09c6.16,1.07,9.45-1.52,10.62-8.2l0.32-1.85-4.27-.74-0.19,1.1c-0.69,4-2.36,5.24-6.2,4.57l-7.32-1.27C840.67,867.94,838.3,869.16,837.47,872.13Z" style="fill:#3ea3ff"/><path d="M341.21,1007.16l-0.21-.36c2.56-1.83,2.9-4.32,1.1-7.4l-3.36-5.75c-2-3.42-1.46-5.36,2.1-7.44l1-.56-2.17-3.72-1.62.95c-5.88,3.43-7.2,7.31-4.08,12.65l2.78,4.76c2,3.37,1.68,5-1.08,6.65l2.85,4.88c2.76-1.61,4.35-1.06,6.31,2.29l3.2,5.49c3.15,5.4,7.26,6.25,13.12,2.83l1.62-.95-2.18-3.74-1,.56c-3.49,2-5.53,1.58-7.49-1.79l-3.75-6.41C346.48,1006.9,344,1005.88,341.21,1007.16Z" style="fill:#3ea3ff"/><path d="M44.12,857.45l-0.19-.37c2.67-1.67,3.16-4.13,1.56-7.32l-3-6c-1.78-3.54-1.12-5.44,2.57-7.29l1-.5-1.94-3.85-1.68.84c-6.08,3.06-7.64,6.84-4.86,12.37l2.47,4.92c1.75,3.48,1.36,5.13-1.5,6.57l2.54,5c2.86-1.44,4.41-.79,6.15,2.68l2.85,5.68C52.91,875.86,57,877,63,873.91l1.68-.84-1.95-3.87-1,.5c-3.61,1.82-5.61,1.23-7.37-2.25l-3.34-6.63C49.39,857.52,47,856.34,44.12,857.45Z" style="fill:#3ea3ff"/><path d="M132.91,730.35l-0.28-.3c2.1-2.32,1.89-4.81-.51-7.42l-4.48-4.87c-2.67-2.89-2.55-4.89.46-7.67l0.81-.75L126,706.2l-1.37,1.26c-5,4.58-5.43,8.62-1.27,13.15l3.71,4c2.62,2.85,2.7,4.53.36,6.69l3.8,4.13c2.34-2.15,4-2,6.61.88l4.28,4.64c4.21,4.57,8.37,4.52,13.33,0l1.37-1.26-2.92-3.17-0.81.75c-3,2.72-5,2.71-7.65-.14l-5-5.43C138,729,135.36,728.51,132.91,730.35Z" style="fill:#3ea3ff"/><path d="M1122.14,501.3l-0.32-.26c1.75-2.61,1.18-5.06-1.59-7.3l-5.17-4.19c-3.07-2.49-3.25-4.49-.66-7.69l0.7-.86-3.34-2.71-1.18,1.46c-4.28,5.28-4.14,9.36.66,13.25l4.27,3.46c3,2.45,3.34,4.11,1.34,6.59l4.38,3.55c2-2.48,3.69-2.52,6.69-.09l4.93,4c4.85,3.93,9,3.27,13.24-2l1.18-1.46-3.36-2.72-0.7.86c-2.54,3.14-4.6,3.43-7.63,1l-5.76-4.66C1127,499.19,1124.31,499.11,1122.14,501.3Z" style="fill:#3ea3ff"/><path d="M1121.7,923.81l-0.29-.29c2-2.41,1.72-4.91-.79-7.44l-4.7-4.73c-2.79-2.81-2.76-4.82.17-7.73l0.79-.79-3-3.06-1.33,1.32c-4.83,4.8-5.13,8.88-.77,13.27l3.88,3.91c2.75,2.77,2.89,4.46.62,6.71l4,4c2.27-2.25,3.94-2.12,6.68.63l4.48,4.51c4.41,4.43,8.59,4.23,13.41-.56l1.33-1.32-3.05-3.07-0.79.79c-2.87,2.85-5,2.92-7.7.15l-5.23-5.27C1126.73,922.24,1124.09,921.87,1121.7,923.81Z" style="fill:#3ea3ff"/><path d="M1807.55,963.93l0.11,0.4c-2.95,1.1-3.92,3.42-3,6.86l1.76,6.43c1,3.82,0,5.55-4,6.64l-1.07.29,1.14,4.16,1.81-.49c6.57-1.79,8.84-5.2,7.21-11.17l-1.45-5.31c-1-3.76-.32-5.3,2.77-6.14l-1.49-5.45c-3.08.84-4.48-.1-5.5-3.84l-1.67-6.13c-1.65-6-5.39-7.91-11.94-6.13l-1.81.49,1.14,4.18,1.07-.29c3.9-1.07,5.75-.09,6.77,3.67l2,7.16C1802.39,962.82,1804.5,964.45,1807.55,963.93Z" style="fill:#3ea3ff"/><path d="M1706.44,1004.49l0.09,0.4c-3,1-4.07,3.23-3.29,6.71l1.45,6.49c0.86,3.86-.24,5.54-4.26,6.44l-1.09.24,0.94,4.2,1.83-.41c6.63-1.48,9.06-4.77,7.71-10.8l-1.2-5.37c-0.85-3.8-.07-5.3,3-6l-1.23-5.51c-3.12.7-4.46-.31-5.3-4.09l-1.38-6.19c-1.36-6.09-5-8.14-11.62-6.66l-1.83.41,0.94,4.22,1.09-.24c3.94-.88,5.74.17,6.59,4l1.62,7.24C1701.35,1003.14,1703.38,1004.86,1706.44,1004.49Z" style="fill:#3ea3ff"/><path d="M1307,876.06l0.1,0.4c-3,1-4,3.34-3.11,6.79l1.62,6.45c1,3.83-.09,5.54-4.08,6.55l-1.08.27,1.05,4.17,1.82-.46c6.59-1.66,8.93-5,7.42-11l-1.34-5.33c-0.95-3.77-.21-5.3,2.89-6.08l-1.38-5.47c-3.09.78-4.46-.19-5.41-3.95l-1.55-6.15c-1.52-6-5.22-8-11.79-6.35l-1.82.46,1.06,4.19,1.08-.27c3.91-1,5.74,0,6.69,3.79l1.81,7.19C1301.91,874.85,1304,876.51,1307,876.06Z" style="fill:#3ea3ff"/><path d="M1295.9,997l-0.27.31c-2.55-1.85-5-1.38-7.37,1.3l-4.39,5c-2.61,3-4.62,3.08-7.72.36l-0.84-.73-2.84,3.24,1.41,1.24c5.12,4.49,9.21,4.51,13.29-.14l3.63-4.14c2.57-2.93,4.25-3.19,6.65-1.08l3.73-4.25c-2.4-2.11-2.38-3.79.17-6.71l4.19-4.78c4.12-4.7,3.63-8.86-1.47-13.34l-1.41-1.24-2.86,3.26,0.84,0.73c3,2.67,3.25,4.74.68,7.67l-4.9,5.58C1294,992,1293.8,994.7,1295.9,997Z" style="fill:#3ea3ff"/><path d="M1106.8,1053.36l-0.34-.23c1.52-2.76.75-5.15-2.21-7.15l-5.52-3.73c-3.28-2.22-3.63-4.2-1.32-7.62l0.62-.92-3.57-2.42-1.05,1.55c-3.82,5.64-3.33,9.7,1.8,13.17l4.56,3.09c3.23,2.19,3.69,3.82,1.9,6.47l4.68,3.17c1.79-2.65,3.46-2.84,6.68-.66l5.26,3.56c5.18,3.5,9.24,2.5,13-3.12l1.05-1.55-3.59-2.43-0.62.92c-2.27,3.35-4.3,3.81-7.53,1.63l-6.15-4.16C1111.44,1050.85,1108.78,1051,1106.8,1053.36Z" style="fill:#3ea3ff"/><path d="M826.52,1033l-0.4-.07c0.28-3.13-1.38-5-4.88-5.64l-6.53-1.2c-3.88-.71-5-2.38-4.26-6.42l0.2-1.09-4.23-.77-0.34,1.84c-1.22,6.68.85,10.19,6.92,11.3l5.4,1c3.82,0.7,4.9,2,4.33,5.14l5.54,1c0.57-3.14,2-4,5.83-3.28l6.23,1.14c6.13,1.12,9.44-1.43,10.66-8.09l0.34-1.84-4.25-.78-0.2,1.09c-0.73,4-2.4,5.21-6.22,4.51l-7.28-1.33C829.75,1028.89,827.38,1030.09,826.52,1033Z" style="fill:#3ea3ff"/><path d="M1821.12,530.95l0.41,0c0.09,3.13,2,4.8,5.5,5l6.62,0.43c3.93,0.25,5.24,1.78,5,5.88l-0.07,1.11,4.28,0.28,0.12-1.86c0.44-6.76-2-10-8.18-10.41l-5.47-.35c-3.87-.25-5.09-1.42-4.89-4.6l-5.62-.36c-0.2,3.18-1.55,4.18-5.4,3.93l-6.31-.41c-6.21-.4-9.2,2.51-9.63,9.26l-0.12,1.86,4.3,0.28,0.07-1.11c0.26-4,1.77-5.44,5.64-5.19l7.38,0.48C1818.4,535.44,1820.61,534,1821.12,530.95Z" style="fill:#3ea3ff"/><path d="M982.78,132.35l-0.14-.39c2.83-1.37,3.59-3.77,2.34-7.11l-2.34-6.24c-1.39-3.71-.53-5.53,3.33-7l1-.39-1.51-4-1.76.66c-6.37,2.39-8.33,6-6.16,11.78l1.93,5.16c1.37,3.65.8,5.25-2.19,6.37l2,5.29c3-1.12,4.47-.31,5.83,3.32l2.23,5.95c2.19,5.85,6.09,7.39,12.45,5l1.76-.66L1000,146l-1,.39c-3.79,1.42-5.71.62-7.08-3l-2.61-7C988,133,985.77,131.57,982.78,132.35Z" style="fill:#3ea3ff"/><circle cx="491.23" cy="130.67" r="2.68" style="fill:#3ea3ff"/><circle cx="318.78" cy="196.24" r="2.68" style="fill:#3ea3ff"/><circle cx="58.87" cy="234.67" r="2.68" style="fill:#3ea3ff"/><circle cx="51.17" cy="423.82" r="2.68" style="fill:#3ea3ff"/><circle cx="321.45" cy="608.3" r="2.68" style="fill:#3ea3ff"/><circle cx="1713.32" cy="552.39" r="2.68" style="fill:#3ea3ff"/><circle cx="1868.87" cy="419.78" r="2.68" style="fill:#3ea3ff"/><circle cx="1611.72" cy="167.85" r="2.68" style="fill:#3ea3ff"/><circle cx="84.59" cy="595.46" r="2.68" style="fill:#3ea3ff"/><circle cx="147.11" cy="1009.13" r="2.68" style="fill:#3ea3ff"/><circle cx="880.56" cy="513.03" r="2.68" style="fill:#3ea3ff"/><circle cx="124.27" cy="1031.62" r="2.68" style="fill:#3ea3ff"/><circle cx="16.39" cy="928.39" r="2.68" style="fill:#3ea3ff"/><circle cx="15.61" cy="29.38" r="2.68" style="fill:#3ea3ff"/><circle cx="764.48" cy="21.94" r="2.68" style="fill:#3ea3ff"/><circle cx="295.6" cy="233.88" r="2.68" style="fill:#3ea3ff"/><circle cx="460.65" cy="372.61" r="2.68" style="fill:#3ea3ff"/><circle cx="423.05" cy="452.78" r="2.68" style="fill:#3ea3ff"/><circle cx="1153.97" cy="673.64" r="2.68" style="fill:#3ea3ff"/><circle cx="661.09" cy="635.49" r="2.68" style="fill:#3ea3ff"/><circle cx="1781.96" cy="444.04" r="2.68" style="fill:#3ea3ff"/><circle cx="1789.86" cy="581.28" r="2.68" style="fill:#3ea3ff"/><circle cx="1836.87" cy="134.08" r="2.68" style="fill:#3ea3ff"/><circle cx="1575.37" cy="857.06" r="2.68" style="fill:#3ea3ff"/><circle cx="579.16" cy="496.93" r="2.68" style="fill:#3ea3ff"/><circle cx="134.25" cy="8.29" r="2.68" style="fill:#3ea3ff"/><circle cx="303.26" cy="183.76" r="2.68" style="fill:#3ea3ff"/><circle cx="444.05" cy="200.95" r="2.68" style="fill:#3ea3ff"/><circle cx="126.27" cy="694.53" r="2.68" style="fill:#3ea3ff"/><circle cx="1301.36" cy="566.88" r="2.68" style="fill:#3ea3ff"/><circle cx="954.46" cy="724.81" r="2.68" style="fill:#3ea3ff"/><circle cx="367.17" cy="1049.27" r="2.68" style="fill:#3ea3ff"/><circle cx="1509.85" cy="250.74" r="2.68" style="fill:#3ea3ff"/></svg>