<svg xmlns="http://www.w3.org/2000/svg" viewBox="0 0 88.29 92.07"><title>code</title><ellipse cx="43.89" cy="75.53" rx="35.79" ry="4.47" style="fill:#92d0ff"/><rect x="12.79" y="12.53" width="63" height="63" rx="2.9" ry="2.9" style="fill:#fff;stroke:#26323d;stroke-miterlimit:10"/><path d="M15.79,12.53h57a3,3,0,0,1,3,3V17a0,0,0,0,1,0,0h-63a0,0,0,0,1,0,0v-1.5A3,3,0,0,1,15.79,12.53Z" style="fill:#26323d"/><line x1="21.79" y1="24.9" x2="30.79" y2="24.9" style="fill:none;stroke:#a0adb5;stroke-miterlimit:10;stroke-width:2px"/><line x1="39.79" y1="24.9" x2="57.79" y2="24.9" style="fill:none;stroke:#26323d;stroke-miterlimit:10;stroke-width:2px"/><line x1="21.79" y1="67.17" x2="30.79" y2="67.17" style="fill:none;stroke:#a0adb5;stroke-miterlimit:10;stroke-width:2px"/><line x1="39.79" y1="33.35" x2="48.79" y2="33.35" style="fill:none;stroke:#0a80ff;stroke-miterlimit:10;stroke-width:2px"/><line x1="30.79" y1="33.35" x2="39.79" y2="33.35" style="fill:none;stroke:#92d0ff;stroke-miterlimit:10;stroke-width:2px"/><line x1="39.79" y1="41.81" x2="66.79" y2="41.81" style="fill:none;stroke:#0a80ff;stroke-miterlimit:10;stroke-width:2px"/><line x1="30.79" y1="41.81" x2="39.79" y2="41.81" style="fill:none;stroke:#92d0ff;stroke-miterlimit:10;stroke-width:2px"/><line x1="39.79" y1="50.26" x2="57.79" y2="50.26" style="fill:none;stroke:#0a80ff;stroke-miterlimit:10;stroke-width:2px"/><line x1="30.79" y1="50.26" x2="39.79" y2="50.26" style="fill:none;stroke:#92d0ff;stroke-miterlimit:10;stroke-width:2px"/><line x1="39.79" y1="58.72" x2="48.79" y2="58.72" style="fill:none;stroke:#0a80ff;stroke-miterlimit:10;stroke-width:2px"/><line x1="30.79" y1="58.72" x2="39.79" y2="58.72" style="fill:none;stroke:#92d0ff;stroke-miterlimit:10;stroke-width:2px"/><line x1="76.6" y1="11.52" x2="82.8" y2="5" style="fill:none;stroke:#92d0ff;stroke-miterlimit:10"/><line x1="76.6" y1="78.52" x2="82.8" y2="85.04" style="fill:none;stroke:#92d0ff;stroke-miterlimit:10"/><line x1="11.2" y1="78.52" x2="5" y2="85.04" style="fill:none;stroke:#92d0ff;stroke-miterlimit:10"/><line x1="11.47" y1="11.52" x2="5.27" y2="5" style="fill:none;stroke:#92d0ff;stroke-miterlimit:10"/><line x1="78.29" y1="20.04" x2="81.29" y2="20.04" style="fill:none;stroke:#a0adb5;stroke-miterlimit:10"/><line x1="78.29" y1="32.03" x2="85.29" y2="32.03" style="fill:none;stroke:#a0adb5;stroke-miterlimit:10"/><line x1="78.29" y1="44.03" x2="88.29" y2="44.03" style="fill:none;stroke:#a0adb5;stroke-miterlimit:10"/><line x1="78.29" y1="56.03" x2="85.29" y2="56.03" style="fill:none;stroke:#a0adb5;stroke-miterlimit:10"/><line x1="78.29" y1="68.03" x2="81.29" y2="68.03" style="fill:none;stroke:#a0adb5;stroke-miterlimit:10"/><line x1="78.29" y1="68.03" x2="81.29" y2="68.03" style="fill:none;stroke:#a0adb5;stroke-miterlimit:10"/><line x1="78.29" y1="20.04" x2="81.29" y2="20.04" style="fill:none;stroke:#a0adb5;stroke-miterlimit:10"/><line x1="78.29" y1="32.03" x2="85.29" y2="32.03" style="fill:none;stroke:#a0adb5;stroke-miterlimit:10"/><line x1="78.29" y1="44.03" x2="88.29" y2="44.03" style="fill:none;stroke:#a0adb5;stroke-miterlimit:10"/><line x1="78.29" y1="56.03" x2="85.29" y2="56.03" style="fill:none;stroke:#a0adb5;stroke-miterlimit:10"/><line x1="78.29" y1="68.03" x2="81.29" y2="68.03" style="fill:none;stroke:#a0adb5;stroke-miterlimit:10"/><line x1="78.29" y1="68.03" x2="81.29" y2="68.03" style="fill:none;stroke:#a0adb5;stroke-miterlimit:10"/><path d="M575.51-294" transform="translate(-556.62 372.03)" style="fill:#fff;stroke:#26323d;stroke-miterlimit:10"/><path d="M587.51-294" transform="translate(-556.62 372.03)" style="fill:#fff;stroke:#26323d;stroke-miterlimit:10"/><path d="M599.51-294" transform="translate(-556.62 372.03)" style="fill:#fff;stroke:#26323d;stroke-miterlimit:10"/><path d="M611.51-294" transform="translate(-556.62 372.03)" style="fill:#fff;stroke:#26323d;stroke-miterlimit:10"/><path d="M623.5-294" transform="translate(-556.62 372.03)" style="fill:#fff;stroke:#26323d;stroke-miterlimit:10"/><line x1="18.9" y1="10" x2="18.9" y2="7" style="fill:none;stroke:#a0adb5;stroke-miterlimit:10"/><line x1="30.89" y1="10" x2="30.89" y2="3" style="fill:none;stroke:#a0adb5;stroke-miterlimit:10"/><line x1="42.89" y1="10" x2="42.89" style="fill:none;stroke:#a0adb5;stroke-miterlimit:10"/><line x1="54.89" y1="10" x2="54.89" y2="3" style="fill:none;stroke:#a0adb5;stroke-miterlimit:10"/><line x1="66.89" y1="10" x2="66.89" y2="7" style="fill:none;stroke:#a0adb5;stroke-miterlimit:10"/><line x1="66.89" y1="10" x2="66.89" y2="7" style="fill:none;stroke:#a0adb5;stroke-miterlimit:10"/><line x1="18.9" y1="10" x2="18.9" y2="7" style="fill:none;stroke:#a0adb5;stroke-miterlimit:10"/><line x1="30.89" y1="10" x2="30.89" y2="3" style="fill:none;stroke:#a0adb5;stroke-miterlimit:10"/><line x1="42.89" y1="10" x2="42.89" style="fill:none;stroke:#a0adb5;stroke-miterlimit:10"/><line x1="54.89" y1="10" x2="54.89" y2="3" style="fill:none;stroke:#a0adb5;stroke-miterlimit:10"/><line x1="66.89" y1="10" x2="66.89" y2="7" style="fill:none;stroke:#a0adb5;stroke-miterlimit:10"/><line x1="66.89" y1="10" x2="66.89" y2="7" style="fill:none;stroke:#a0adb5;stroke-miterlimit:10"/><line x1="18.9" y1="82.07" x2="18.9" y2="85.07" style="fill:none;stroke:#a0adb5;stroke-miterlimit:10"/><line x1="30.89" y1="82.07" x2="30.89" y2="89.07" style="fill:none;stroke:#a0adb5;stroke-miterlimit:10"/><line x1="42.89" y1="82.07" x2="42.89" y2="92.07" style="fill:none;stroke:#a0adb5;stroke-miterlimit:10"/><line x1="54.89" y1="82.07" x2="54.89" y2="89.07" style="fill:none;stroke:#a0adb5;stroke-miterlimit:10"/><line x1="66.89" y1="82.07" x2="66.89" y2="85.07" style="fill:none;stroke:#a0adb5;stroke-miterlimit:10"/><line x1="66.89" y1="82.07" x2="66.89" y2="85.07" style="fill:none;stroke:#a0adb5;stroke-miterlimit:10"/><line x1="18.9" y1="82.07" x2="18.9" y2="85.07" style="fill:none;stroke:#a0adb5;stroke-miterlimit:10"/><line x1="30.89" y1="82.07" x2="30.89" y2="89.07" style="fill:none;stroke:#a0adb5;stroke-miterlimit:10"/><line x1="42.89" y1="82.07" x2="42.89" y2="92.07" style="fill:none;stroke:#a0adb5;stroke-miterlimit:10"/><line x1="54.89" y1="82.07" x2="54.89" y2="89.07" style="fill:none;stroke:#a0adb5;stroke-miterlimit:10"/><line x1="66.89" y1="82.07" x2="66.89" y2="85.07" style="fill:none;stroke:#a0adb5;stroke-miterlimit:10"/><line x1="66.89" y1="82.07" x2="66.89" y2="85.07" style="fill:none;stroke:#a0adb5;stroke-miterlimit:10"/><line x1="10" y1="20.04" x2="7" y2="20.04" style="fill:none;stroke:#a0adb5;stroke-miterlimit:10"/><line x1="10" y1="32.03" x2="3" y2="32.03" style="fill:none;stroke:#a0adb5;stroke-miterlimit:10"/><line x1="10" y1="44.03" y2="44.03" style="fill:none;stroke:#a0adb5;stroke-miterlimit:10"/><line x1="10" y1="56.03" x2="3" y2="56.03" style="fill:none;stroke:#a0adb5;stroke-miterlimit:10"/><line x1="10" y1="68.03" x2="7" y2="68.03" style="fill:none;stroke:#a0adb5;stroke-miterlimit:10"/><line x1="10" y1="68.03" x2="7" y2="68.03" style="fill:none;stroke:#a0adb5;stroke-miterlimit:10"/><line x1="10" y1="20.04" x2="7" y2="20.04" style="fill:none;stroke:#a0adb5;stroke-miterlimit:10"/><line x1="10" y1="32.03" x2="3" y2="32.03" style="fill:none;stroke:#a0adb5;stroke-miterlimit:10"/><line x1="10" y1="44.03" y2="44.03" style="fill:none;stroke:#a0adb5;stroke-miterlimit:10"/><line x1="10" y1="56.03" x2="3" y2="56.03" style="fill:none;stroke:#a0adb5;stroke-miterlimit:10"/><line x1="10" y1="68.03" x2="7" y2="68.03" style="fill:none;stroke:#a0adb5;stroke-miterlimit:10"/><line x1="10" y1="68.03" x2="7" y2="68.03" style="fill:none;stroke:#a0adb5;stroke-miterlimit:10"/></svg>