<svg xmlns="http://www.w3.org/2000/svg" xmlns:xlink="http://www.w3.org/1999/xlink" viewBox="0 0 1920 1080"><defs><clipPath id="a"><rect x="-51.5" y="-24.24" width="1990.5" height="2875.45" style="fill:none"/></clipPath><symbol id="b" viewBox="0 0 3.42 3.42"><circle cx="1.71" cy="1.71" r="1.71" style="fill:#3ea3ff"/></symbol><symbol id="ch" viewBox="0 0 21.41 46.05"><path d="M16.66,15.44l-1,4.87h3.53L18.6,23.42H15L13.73,30H10.55l1.32-6.57H7.52L6.19,30H3l1.32-6.57H0.83l0.62-3.11H5l1-4.87H2.58l0.6-3.09H6.57L7.84,6H11L9.76,12.35h4.36L15.38,6h3.18L17.3,12.35H21l-0.6,3.09H16.66ZM7.88,20.56h4.78l1.09-5.36H9Z" style="fill:#3ea3ff"/></symbol><symbol id="cq" viewBox="0 0 10.3 31.48"><path d="M6.07,16.62v3.6c0,1.89.74,2.58,2.7,2.58H9.31V24.9H8.4c-3.29,0-4.8-1.36-4.8-4.39V17.43c0-1.88-.53-2.5-2.08-2.5V12.19c1.55,0,2.08-.63,2.08-2.52V7C3.6,4,5.1,2.7,8.4,2.7H9.31V4.79H8.77c-2,0-2.7.68-2.7,2.6v3.23c0,1.73-.75,2.69-2.27,2.83v0.2C5.29,13.8,6.07,14.83,6.07,16.62Z" style="fill:#3ea3ff"/></symbol></defs><title>colorbg</title><g style="clip-path:url(#a)"><use width="3.43" height="3.43" transform="translate(1771.43 162.5) scale(1.56)" xlink:href="#b"/><use width="3.43" height="3.43" transform="translate(1762.35 164.93) scale(1.56)" xlink:href="#b"/><use width="3.43" height="3.43" transform="translate(1523.88 176.71) scale(1.56)" xlink:href="#b"/><use width="3.43" height="3.43" transform="translate(1229.68 181.01) scale(1.56)" xlink:href="#b"/><use width="3.43" height="3.43" transform="translate(1217.07 150.73) scale(1.56)" xlink:href="#b"/><use width="3.43" height="3.43" transform="translate(1117.8 147.63) scale(1.56)" xlink:href="#b"/><use width="3.43" height="3.43" transform="translate(637.12 59.1) scale(1.56)" xlink:href="#b"/><use width="3.43" height="3.43" transform="translate(488.55 127.99) scale(1.56)" xlink:href="#b"/><use width="3.43" height="3.43" transform="translate(316.1 193.56) scale(1.56)" xlink:href="#b"/><use width="3.43" height="3.43" transform="translate(231.97 192.09) scale(1.56)" xlink:href="#b"/><use width="3.43" height="3.43" transform="translate(189.04 215.28) scale(1.56)" xlink:href="#b"/><use width="3.43" height="3.43" transform="translate(56.19 231.99) scale(1.56)" xlink:href="#b"/><use width="3.43" height="3.43" transform="translate(12.24 250.83) scale(1.56)" xlink:href="#b"/><use width="3.43" height="3.43" transform="translate(35.21 385.33) scale(1.56)" xlink:href="#b"/><use width="3.43" height="3.43" transform="translate(48.49 421.14) scale(1.56)" xlink:href="#b"/><use width="3.43" height="3.43" transform="translate(64.51 481.17) scale(1.56)" xlink:href="#b"/><use width="3.43" height="3.43" transform="translate(210.89 574.07) scale(1.56)" xlink:href="#b"/><use width="3.43" height="3.43" transform="translate(305.87 631.7) scale(1.56)" xlink:href="#b"/><use width="3.43" height="3.43" transform="translate(332.49 642.49) scale(1.56)" xlink:href="#b"/><use width="3.43" height="3.43" transform="translate(418.93 666.48) scale(1.56)" xlink:href="#b"/><use width="3.43" height="3.43" transform="translate(540.08 672.38) scale(1.56)" xlink:href="#b"/><use width="3.43" height="3.43" transform="translate(875.21 650.25) scale(1.56)" xlink:href="#b"/><use width="3.43" height="3.43" transform="translate(1111.57 623.24) scale(1.56)" xlink:href="#b"/><use width="3.43" height="3.43" transform="translate(1298.68 655.79) scale(1.56)" xlink:href="#b"/><use width="3.43" height="3.43" transform="translate(1710.64 549.71) scale(1.56)" xlink:href="#b"/><use width="3.43" height="3.43" transform="translate(1820.77 403.47) scale(1.56)" xlink:href="#b"/><use width="3.43" height="3.43" transform="translate(1900.15 353.38) scale(1.56)" xlink:href="#b"/><use width="3.43" height="3.43" transform="translate(1866.19 417.1) scale(1.56)" xlink:href="#b"/><use width="3.43" height="3.43" transform="translate(1520.77 232.82) scale(1.56)" xlink:href="#b"/><use width="3.43" height="3.43" transform="translate(1475.81 174.02) scale(1.56)" xlink:href="#b"/><use width="3.43" height="3.43" transform="translate(1477.37 316.36) scale(1.56)" xlink:href="#b"/><use width="3.43" height="3.43" transform="translate(1609.52 538.88) scale(1.56)" xlink:href="#b"/><use width="3.43" height="3.43" transform="translate(1667.68 581.26) scale(1.56)" xlink:href="#b"/><use width="3.43" height="3.43" transform="translate(1665.58 756.28) scale(1.56)" xlink:href="#b"/><use width="3.43" height="3.43" transform="translate(1618.08 802.39) scale(1.56)" xlink:href="#b"/><use width="3.43" height="3.43" transform="translate(1609.04 806.59) scale(1.56)" xlink:href="#b"/><use width="3.43" height="3.43" transform="translate(1365.94 758.13) scale(1.56)" xlink:href="#b"/><use width="3.43" height="3.43" transform="translate(798.51 492.24) scale(1.56)" xlink:href="#b"/><use width="3.43" height="3.43" transform="translate(461.39 390.19) scale(1.56)" xlink:href="#b"/><use width="3.43" height="3.43" transform="translate(375.14 366.37) scale(1.56)" xlink:href="#b"/><use width="3.43" height="3.43" transform="translate(238.49 386.66) scale(1.56)" xlink:href="#b"/><use width="3.43" height="3.43" transform="translate(97.55 519.29) scale(1.56)" xlink:href="#b"/><use width="3.43" height="3.43" transform="translate(81.91 592.78) scale(1.56)" xlink:href="#b"/><use width="3.43" height="3.43" transform="translate(116.04 769.85) scale(1.56)" xlink:href="#b"/><use width="3.43" height="3.43" transform="translate(144.43 1006.45) scale(1.56)" xlink:href="#b"/><use width="3.43" height="3.43" transform="translate(130.17 1032.71) scale(1.56)" xlink:href="#b"/><use width="3.43" height="3.43" transform="translate(121.59 1028.94) scale(1.56)" xlink:href="#b"/><use width="3.43" height="3.43" transform="translate(13.71 925.71) scale(1.56)" xlink:href="#b"/><use width="3.43" height="3.43" transform="translate(232.61 645.08) scale(1.56)" xlink:href="#b"/><use width="3.43" height="3.43" transform="translate(1689.17 857.85) scale(1.56)" xlink:href="#b"/><use width="3.43" height="3.43" transform="translate(1616.25 822.85) scale(1.56)" xlink:href="#b"/><use width="3.43" height="3.43" transform="translate(1876.2 623.04) scale(1.56)" xlink:href="#b"/><use width="3.43" height="3.43" transform="translate(1645.59 1053.31) scale(1.56)" xlink:href="#b"/><use width="3.43" height="3.43" transform="translate(1682.14 841.53) scale(1.56)" xlink:href="#b"/><use width="3.43" height="3.43" transform="translate(1799 1063.31) scale(1.56)" xlink:href="#b"/><use width="3.43" height="3.43" transform="translate(1748.01 1038.85) scale(1.56)" xlink:href="#b"/><use width="3.43" height="3.43" transform="translate(373.55 906.78) scale(1.56)" xlink:href="#b"/><use width="3.43" height="3.43" transform="translate(205.91 877.36) scale(1.56)" xlink:href="#b"/><use width="3.43" height="3.43" transform="translate(119.48 950.43) scale(1.56)" xlink:href="#b"/><use width="3.43" height="3.43" transform="translate(106.51 950.55) scale(1.56)" xlink:href="#b"/><use width="3.43" height="3.43" transform="translate(2.76 440.75) scale(1.56)" xlink:href="#b"/><use width="3.43" height="3.43" transform="translate(15.31 14.43) scale(1.56)" xlink:href="#b"/><use width="3.43" height="3.43" transform="translate(12.93 26.7) scale(1.56)" xlink:href="#b"/><use width="3.43" height="3.43" transform="translate(25.25 24.35) scale(1.56)" xlink:href="#b"/><use width="3.43" height="3.43" transform="translate(854.09 134.46) scale(1.56)" xlink:href="#b"/><use width="3.43" height="3.43" transform="translate(761.8 19.26) scale(1.56)" xlink:href="#b"/><use width="3.43" height="3.43" transform="translate(732.47 100.27) scale(1.56)" xlink:href="#b"/><use width="3.43" height="3.43" transform="translate(617.71 430.72) scale(1.56)" xlink:href="#b"/><use width="3.43" height="3.43" transform="translate(384.01 143.22) scale(1.56)" xlink:href="#b"/><use width="3.43" height="3.43" transform="translate(292.92 231.2) scale(1.56)" xlink:href="#b"/><use width="3.43" height="3.43" transform="translate(442.36 379.03) scale(1.56)" xlink:href="#b"/><use width="3.43" height="3.43" transform="translate(457.97 369.93) scale(1.56)" xlink:href="#b"/><use width="3.43" height="3.43" transform="translate(420.37 450.1) scale(1.56)" xlink:href="#b"/><use width="3.43" height="3.43" transform="translate(698.43 680.66) scale(1.56)" xlink:href="#b"/><use width="3.43" height="3.43" transform="translate(919.15 719.32) scale(1.56)" xlink:href="#b"/><use width="3.43" height="3.43" transform="translate(921.66 710.4) scale(1.56)" xlink:href="#b"/><use width="3.43" height="3.43" transform="translate(1151.29 670.96) scale(1.56)" xlink:href="#b"/><use width="3.43" height="3.43" transform="translate(1456.88 986.18) scale(1.56)" xlink:href="#b"/><use width="3.43" height="3.43" transform="translate(1049.64 989.01) scale(1.56)" xlink:href="#b"/><use width="3.43" height="3.43" transform="translate(543.14 873.11) scale(1.56)" xlink:href="#b"/><use width="3.43" height="3.43" transform="translate(534.76 629.11) scale(1.56)" xlink:href="#b"/><use width="3.43" height="3.43" transform="translate(519.93 703.25) scale(1.56)" xlink:href="#b"/><use width="3.43" height="3.43" transform="translate(364.82 766.86) scale(1.56)" xlink:href="#b"/><use width="3.43" height="3.43" transform="translate(313.94 768.6) scale(1.56)" xlink:href="#b"/><use width="21.41" height="46.05" transform="translate(1766.65 202.01) rotate(-17.67) scale(1.56)" xlink:href="#ch"/><use width="21.41" height="46.05" transform="matrix(1.18, 1.01, -1.01, 1.18, 1026.98, -26.73)" xlink:href="#ch"/><use width="21.41" height="46.05" transform="translate(796.46 29.14) rotate(-41.32) scale(1.56)" xlink:href="#ch"/><use width="21.41" height="46.05" transform="translate(544.18 127.69) rotate(-25.53) scale(1.56)" xlink:href="#ch"/><use width="21.41" height="46.05" transform="matrix(-0.45, -1.49, 1.49, -0.45, 186.65, 396.67)" xlink:href="#ch"/><use width="21.41" height="46.05" transform="translate(103.95 718.04) rotate(-34.86) scale(1.56)" xlink:href="#ch"/><use width="21.41" height="46.05" transform="matrix(-0.05, -1.55, 1.55, -0.05, 428.45, 721.25)" xlink:href="#ch"/><use width="21.41" height="46.05" transform="translate(1807.38 823.39) rotate(-58.65) scale(1.56)" xlink:href="#ch"/><use width="21.41" height="46.05" transform="translate(1588.86 627.63) rotate(25.39) scale(1.56)" xlink:href="#ch"/><use width="10.3" height="31.48" transform="matrix(-0.1, 1.55, -1.55, -0.1, 1845.51, 527.83)" xlink:href="#cq"/><use width="10.3" height="31.48" transform="translate(1110.58 704.92) rotate(23.37) scale(1.56)" xlink:href="#cq"/><use width="10.3" height="31.48" transform="translate(9.71 177.26) rotate(-100.55) scale(1.56)" xlink:href="#cq"/><use width="10.3" height="31.48" transform="translate(500.47 -21.21) rotate(-42.32) scale(1.56)" xlink:href="#cq"/><use width="10.3" height="31.48" transform="translate(424.11 276.36) rotate(-69.12) scale(1.56)" xlink:href="#cq"/><use width="10.3" height="31.48" transform="matrix(1.21, -0.97, 0.97, 1.21, -33.93, 887.52)" xlink:href="#cq"/><use width="10.3" height="31.48" transform="translate(1545.96 290.6) rotate(-1.64) scale(1.56)" xlink:href="#cq"/><use width="10.3" height="31.48" transform="translate(1704.68 52.3) rotate(-27.05) scale(1.56)" xlink:href="#cq"/><use width="3.43" height="3.43" transform="translate(1660.88 280.24) scale(1.56)" xlink:href="#b"/><use width="3.43" height="3.43" transform="translate(1779.28 441.36) scale(1.56)" xlink:href="#b"/><use width="3.43" height="3.43" transform="translate(1823.25 302.29) scale(1.56)" xlink:href="#b"/><use width="3.43" height="3.43" transform="translate(1787.18 578.6) scale(1.56)" xlink:href="#b"/><use width="3.43" height="3.43" transform="translate(1535.38 941.34) scale(1.56)" xlink:href="#b"/><use width="3.43" height="3.43" transform="translate(1877.51 90.14) scale(1.56)" xlink:href="#b"/><use width="3.43" height="3.43" transform="translate(1834.19 131.4) scale(1.56)" xlink:href="#b"/><use width="3.43" height="3.43" transform="translate(1575.37 766.28) scale(1.56)" xlink:href="#b"/><use width="3.43" height="3.43" transform="translate(1219.14 760.46) scale(1.56)" xlink:href="#b"/><use width="3.43" height="3.43" transform="translate(1217.27 751.45) scale(1.56)" xlink:href="#b"/><use width="3.43" height="3.43" transform="translate(1054.34 742.52) scale(1.56)" xlink:href="#b"/><use width="3.43" height="3.43" transform="translate(426.31 470.21) scale(1.56)" xlink:href="#b"/><use width="3.43" height="3.43" transform="translate(292.91 490.31) scale(1.56)" xlink:href="#b"/><use width="3.43" height="3.43" transform="translate(277.74 508.34) scale(1.56)" xlink:href="#b"/><use width="3.43" height="3.43" transform="translate(220.66 510.66) scale(1.56)" xlink:href="#b"/><use width="3.43" height="3.43" transform="translate(202.08 374.57) scale(1.56)" xlink:href="#b"/><use width="3.43" height="3.43" transform="translate(296.42 463) scale(1.56)" xlink:href="#b"/><use width="3.43" height="3.43" transform="translate(131.57 5.61) scale(1.56)" xlink:href="#b"/><use width="3.43" height="3.43" transform="translate(300.58 181.08) scale(1.56)" xlink:href="#b"/><use width="3.43" height="3.43" transform="translate(441.37 198.27) scale(1.56)" xlink:href="#b"/><use width="3.43" height="3.43" transform="translate(200.58 228.72) scale(1.56)" xlink:href="#b"/><use width="3.43" height="3.43" transform="translate(123.59 691.85) scale(1.56)" xlink:href="#b"/><use width="3.43" height="3.43" transform="translate(152.3 794.04) scale(1.56)" xlink:href="#b"/><use width="3.43" height="3.43" transform="translate(161.26 791.6) scale(1.56)" xlink:href="#b"/><use width="3.43" height="3.43" transform="translate(131.23 1035.02) scale(1.56)" xlink:href="#b"/><use width="3.43" height="3.43" transform="translate(653.06 868.93) scale(1.56)" xlink:href="#b"/><use width="3.43" height="3.43" transform="translate(641.46 853.06) scale(1.56)" xlink:href="#b"/><use width="3.43" height="3.43" transform="translate(1552.57 811.9) scale(1.56)" xlink:href="#b"/><use width="3.43" height="3.43" transform="translate(1911.63 763.34) scale(1.56)" xlink:href="#b"/><use width="3.43" height="3.43" transform="translate(1645.83 1074.99) scale(1.56)" xlink:href="#b"/><use width="3.43" height="3.43" transform="translate(1148.09 768.58) scale(1.56)" xlink:href="#b"/><use width="3.43" height="3.43" transform="translate(1148 713.19) scale(1.56)" xlink:href="#b"/><use width="3.43" height="3.43" transform="translate(951.82 731.3) scale(1.56)" xlink:href="#b"/><use width="3.43" height="3.43" transform="translate(951.78 722.13) scale(1.56)" xlink:href="#b"/><use width="3.43" height="3.43" transform="translate(745.48 843.07) scale(1.56)" xlink:href="#b"/><use width="3.43" height="3.43" transform="translate(364.49 1046.59) scale(1.56)" xlink:href="#b"/><use width="3.43" height="3.43" transform="translate(378.26 966.06) scale(1.56)" xlink:href="#b"/><use width="3.43" height="3.43" transform="translate(882.11 328.83) scale(1.56)" xlink:href="#b"/><use width="3.43" height="3.43" transform="translate(1502.01 262.42) scale(1.56)" xlink:href="#b"/><use width="3.43" height="3.43" transform="translate(1507.17 248.06) scale(1.56)" xlink:href="#b"/><use width="3.43" height="3.43" transform="translate(1419.92 7.45) scale(1.56)" xlink:href="#b"/><use width="21.41" height="46.05" transform="translate(-23.65 -54.13) scale(1.56)" xlink:href="#ch"/><use width="21.41" height="46.05" transform="translate(19.61 118.53) scale(1.56)" xlink:href="#ch"/><use width="21.41" height="46.05" transform="translate(291.08 188.17) scale(1.56)" xlink:href="#ch"/><use width="21.41" height="46.05" transform="translate(1303.29 417.18) scale(1.56)" xlink:href="#ch"/><use width="21.41" height="46.05" transform="translate(1679.73 409) scale(1.56)" xlink:href="#ch"/><use width="21.41" height="46.05" transform="translate(1839.07 487.4) scale(1.56)" xlink:href="#ch"/><use width="21.41" height="46.05" transform="translate(1798.22 577.02) scale(1.56)" xlink:href="#ch"/><use width="10.3" height="31.48" transform="matrix(1.08, -1.12, 1.12, 1.08, 1873.81, 12.39)" xlink:href="#cq"/><use width="10.3" height="31.48" transform="translate(1431.36 75.73) rotate(-102.67) scale(1.56)" xlink:href="#cq"/><use width="10.3" height="31.48" transform="translate(1455.44 72.55) rotate(-103.56) scale(1.56)" xlink:href="#cq"/><use width="10.3" height="31.48" transform="translate(969.87 111.3) rotate(-20.54) scale(1.56)" xlink:href="#cq"/><use width="10.3" height="31.48" transform="matrix(1.12, -1.08, 1.08, 1.12, 224.39, 70.77)" xlink:href="#cq"/><use width="10.3" height="31.48" transform="matrix(0.82, -1.32, 1.32, 0.82, 138.84, 119.82)" xlink:href="#cq"/><use width="10.3" height="31.48" transform="matrix(1.3, -0.85, 0.85, 1.3, 395.57, 571.95)" xlink:href="#cq"/><use width="10.3" height="31.48" transform="matrix(0.67, -1.4, 1.4, 0.67, 683.63, 657.28)" xlink:href="#cq"/><use width="10.3" height="31.48" transform="matrix(0.87, -1.29, 1.29, 0.87, 1666.13, 234.05)" xlink:href="#cq"/><use width="10.3" height="31.48" transform="matrix(1.27, -0.89, 0.89, 1.27, 1854.36, 212.71)" xlink:href="#cq"/><use width="10.3" height="31.48" transform="translate(1718.03 556.37) rotate(133.5) scale(1.56)" xlink:href="#cq"/><use width="10.3" height="31.48" transform="translate(474.77 637.99) rotate(-35.48) scale(1.56)" xlink:href="#cq"/><use width="10.3" height="31.48" transform="translate(57.3 503.55) rotate(-84.45) scale(1.56)" xlink:href="#cq"/><use width="10.3" height="31.48" transform="translate(43.07 447.04) rotate(-91.55) scale(1.56)" xlink:href="#cq"/><use width="10.3" height="31.48" transform="translate(221.37 365.94) rotate(-65.59) scale(1.56)" xlink:href="#cq"/><use width="10.3" height="31.48" transform="translate(1444.2 760.15) rotate(168.89) scale(1.56)" xlink:href="#cq"/><use width="10.3" height="31.48" transform="translate(1751.86 872.68) rotate(154.79) scale(1.56)" xlink:href="#cq"/><use width="10.3" height="31.48" transform="translate(1930.4 882.94) rotate(144.35) scale(1.56)" xlink:href="#cq"/><use width="10.3" height="31.48" transform="translate(1869.79 711.2) rotate(138.53) scale(1.56)" xlink:href="#cq"/><use width="10.3" height="31.48" transform="translate(1744.32 589.3) rotate(136.81) scale(1.56)" xlink:href="#cq"/><use width="10.3" height="31.48" transform="translate(812.78 872.61) rotate(-80.13) scale(1.56)" xlink:href="#cq"/><use width="10.3" height="31.48" transform="translate(324.92 988.6) rotate(-30.29) scale(1.56)" xlink:href="#cq"/><use width="10.3" height="31.48" transform="translate(29.02 837.9) rotate(-26.7) scale(1.56)" xlink:href="#cq"/><use width="10.3" height="31.48" transform="matrix(1.14, -1.05, 1.05, 1.14, 113.15, 715.8)" xlink:href="#cq"/><use width="10.3" height="31.48" transform="matrix(0.98, -1.21, 1.21, 0.98, 578.03, 660.83)" xlink:href="#cq"/><use width="10.3" height="31.48" transform="translate(1101.27 909.93) rotate(-44.82) scale(1.56)" xlink:href="#cq"/><use width="10.3" height="31.48" transform="translate(1733.24 1002.77) rotate(164.72) scale(1.56)" xlink:href="#cq"/><use width="10.3" height="31.48" transform="matrix(-1.52, 0.34, -0.34, -1.52, 1716.31, 1027.09)" xlink:href="#cq"/><use width="10.3" height="31.48" transform="matrix(-1.51, 0.38, -0.38, -1.51, 1702.87, 1000.51)" xlink:href="#cq"/><use width="10.3" height="31.48" transform="translate(1334.45 1065.52) rotate(-138.75) scale(1.56)" xlink:href="#cq"/><use width="10.3" height="31.48" transform="translate(1084.09 1043.67) rotate(-55.91) scale(1.56)" xlink:href="#cq"/><use width="10.3" height="31.48" transform="matrix(0.28, -1.53, 1.53, 0.28, 801.9, 1033.31)" xlink:href="#cq"/></g></svg>