<?xml version="1.0" encoding="utf-8"?>
<!-- Generator: Adobe Illustrator 19.2.0, SVG Export Plug-In . SVG Version: 6.00 Build 0)  -->
<svg version="1.1" xmlns="http://www.w3.org/2000/svg" xmlns:xlink="http://www.w3.org/1999/xlink" x="0px" y="0px"
	 viewBox="0 0 1920 1080" style="enable-background:new 0 0 1920 1080;" xml:space="preserve">
<style type="text/css">
	.st0{display:none;}
	.st1{display:inline;}
	.st2{fill:none;}
	.st3{fill:#3EA3FF;}
</style>
<g id="Layer_1" class="st0">
	<title>colorbg</title>
	<g class="st1">
		<rect x="-51.5" y="-24.2" class="st2" width="1990.5" height="2875.4"/>
	</g>
	<g class="st1">
		<circle class="st3" cx="1765" cy="167.6" r="2.7"/>
	</g>
	<g class="st1">
		<circle class="st3" cx="1219.7" cy="153.4" r="2.7"/>
	</g>
	<g class="st1">
		<circle class="st3" cx="639.8" cy="61.8" r="2.7"/>
	</g>
	<g class="st1">
		<circle class="st3" cx="234.6" cy="194.8" r="2.7"/>
	</g>
	<g class="st1">
		<circle class="st3" cx="191.7" cy="218" r="2.7"/>
	</g>
	<g class="st1">
		<circle class="st3" cx="37.9" cy="388" r="2.7"/>
	</g>
	<g class="st1">
		<circle class="st3" cx="67.2" cy="483.8" r="2.7"/>
	</g>
	<g class="st1">
		<circle class="st3" cx="308.5" cy="634.4" r="2.7"/>
	</g>
	<g class="st1">
		<circle class="st3" cx="335.2" cy="645.2" r="2.7"/>
	</g>
	<g class="st1">
		<circle class="st3" cx="421.6" cy="669.2" r="2.7"/>
	</g>
	<g class="st1">
		<circle class="st3" cx="1902.8" cy="356.1" r="2.7"/>
	</g>
	<g class="st1">
		<circle class="st3" cx="1478.5" cy="176.7" r="2.7"/>
	</g>
	<g class="st1">
		<circle class="st3" cx="1480" cy="319" r="2.7"/>
	</g>
	<g class="st1">
		<circle class="st3" cx="1612.2" cy="541.6" r="2.7"/>
	</g>
	<g class="st1">
		<circle class="st3" cx="1668.3" cy="759" r="2.7"/>
	</g>
	<g class="st1">
		<circle class="st3" cx="1620.8" cy="805.1" r="2.7"/>
	</g>
	<g class="st1">
		<circle class="st3" cx="1368.6" cy="760.8" r="2.7"/>
	</g>
	<g class="st1">
		<circle class="st3" cx="801.2" cy="494.9" r="2.7"/>
	</g>
	<g class="st1">
		<circle class="st3" cx="377.8" cy="369" r="2.7"/>
	</g>
	<g class="st1">
		<circle class="st3" cx="241.2" cy="389.3" r="2.7"/>
	</g>
	<g class="st1">
		<circle class="st3" cx="100.2" cy="522" r="2.7"/>
	</g>
	<g class="st1">
		<circle class="st3" cx="118.7" cy="772.5" r="2.7"/>
	</g>
	<g class="st1">
		<circle class="st3" cx="235.3" cy="647.8" r="2.7"/>
	</g>
	<g class="st1">
		<circle class="st3" cx="1691.8" cy="860.5" r="2.7"/>
	</g>
	<g class="st1">
		<circle class="st3" cx="1878.9" cy="625.7" r="2.7"/>
	</g>
	<g class="st1">
		<circle class="st3" cx="1648.3" cy="1056" r="2.7"/>
	</g>
	<g class="st1">
		<circle class="st3" cx="1750.7" cy="1041.5" r="2.7"/>
	</g>
	<g class="st1">
		<circle class="st3" cx="376.2" cy="909.5" r="2.7"/>
	</g>
	<g class="st1">
		<circle class="st3" cx="208.6" cy="880" r="2.7"/>
	</g>
	<g class="st1">
		<circle class="st3" cx="122.2" cy="953.1" r="2.7"/>
	</g>
	<g class="st1">
		<circle class="st3" cx="5.4" cy="443.4" r="2.7"/>
	</g>
	<g class="st1">
		<circle class="st3" cx="18" cy="17.1" r="2.7"/>
	</g>
	<g class="st1">
		<circle class="st3" cx="856.8" cy="137.1" r="2.7"/>
	</g>
	<g class="st1">
		<circle class="st3" cx="620.4" cy="433.4" r="2.7"/>
	</g>
	<g class="st1">
		<circle class="st3" cx="445" cy="381.7" r="2.7"/>
	</g>
	<g class="st1">
		<circle class="st3" cx="701.1" cy="683.3" r="2.7"/>
	</g>
	<g class="st1">
		<circle class="st3" cx="921.8" cy="722" r="2.7"/>
	</g>
	<g class="st1">
		<circle class="st3" cx="924.3" cy="713.1" r="2.7"/>
	</g>
	<g class="st1">
		<circle class="st3" cx="1052.3" cy="991.7" r="2.7"/>
	</g>
	<g class="st1">
		<circle class="st3" cx="545.8" cy="875.8" r="2.7"/>
	</g>
	<g class="st1">
		<circle class="st3" cx="537.4" cy="631.8" r="2.7"/>
	</g>
	<g class="st1">
		<circle class="st3" cx="367.5" cy="769.5" r="2.7"/>
	</g>
	<g class="st1">
		<circle class="st3" cx="1663.6" cy="282.9" r="2.7"/>
	</g>
	<g class="st1">
		<circle class="st3" cx="1538.1" cy="944" r="2.7"/>
	</g>
	<g class="st1">
		<circle class="st3" cx="1219.9" cy="754.1" r="2.7"/>
	</g>
	<g class="st1">
		<circle class="st3" cx="1057" cy="745.2" r="2.7"/>
	</g>
	<g class="st1">
		<circle class="st3" cx="280.4" cy="511" r="2.7"/>
	</g>
	<g class="st1">
		<circle class="st3" cx="204.8" cy="377.2" r="2.7"/>
	</g>
	<g class="st1">
		<circle class="st3" cx="163.9" cy="794.3" r="2.7"/>
	</g>
	<g class="st1">
		<circle class="st3" cx="644.1" cy="855.7" r="2.7"/>
	</g>
	<g class="st1">
		<circle class="st3" cx="1914.3" cy="766" r="2.7"/>
	</g>
	<g class="st1">
		<circle class="st3" cx="1150.8" cy="771.3" r="2.7"/>
	</g>
	<g class="st1">
		<circle class="st3" cx="748.2" cy="845.7" r="2.7"/>
	</g>
	<g class="st1">
		<circle class="st3" cx="884.8" cy="331.5" r="2.7"/>
	</g>
</g>
<g id="Layer_3">
	<g>
		<path class="st3" d="M1105.3,729l0.2-0.4c3,1,5.2-0.2,6.6-3.5l2.6-6.1c1.6-3.6,3.5-4.4,7.2-2.7l1,0.4l1.7-4l-1.7-0.7
			c-6.2-2.7-10.2-1.5-12.6,4.2l-2.2,5.1c-1.5,3.6-3.1,4.3-6,3.1l-2.2,5.2c2.9,1.3,3.4,2.9,1.9,6.4l-2.5,5.8
			c-2.5,5.7-0.7,9.5,5.5,12.2l1.7,0.7l1.7-4l-1-0.4c-3.7-1.6-4.5-3.5-3-7.1l2.9-6.8C1108.6,733.1,1108,730.5,1105.3,729z"/>
	</g>
	<g>
		<path class="st3" d="M66.6,191.5l-0.4,0.1c-0.9-3-3.1-4.2-6.6-3.5l-6.5,1.2c-3.9,0.7-5.5-0.4-6.3-4.5l-0.2-1.1l-4.2,0.8l0.3,1.8
			c1.2,6.7,4.4,9.2,10.5,8.1l5.4-1c3.8-0.7,5.3,0.1,5.9,3.3l5.6-1c-0.6-3.1,0.5-4.5,4.3-5.2l6.2-1.2c6.1-1.1,8.3-4.7,7.1-11.4
			l-0.3-1.8l-4.3,0.8l0.2,1.1c0.7,4-0.4,5.7-4.2,6.4l-7.3,1.4C68.2,186.4,66.4,188.4,66.6,191.5z"/>
	</g>
	<g>
		<path class="st3" d="M519.4,38.5l-0.3-0.3c2.1-2.3,1.9-4.8-0.5-7.5l-4.5-4.9c-2.7-2.9-2.5-4.9,0.5-7.7l0.8-0.7l-2.9-3.2l-1.4,1.3
			c-5,4.6-5.5,8.6-1.3,13.2l3.7,4.1c2.6,2.9,2.7,4.6,0.3,6.7l3.8,4.2c2.4-2.2,4-1.9,6.6,0.9l4.3,4.7c4.2,4.6,8.4,4.6,13.4,0l1.4-1.3
			l-2.9-3.2l-0.8,0.7c-3,2.7-5.1,2.7-7.7-0.2l-5-5.5C524.5,37.1,521.9,36.6,519.4,38.5z"/>
	</g>
	<g>
		<path class="st3" d="M448.4,280.6l-0.4-0.1c0.8-3-0.5-5.2-3.8-6.5l-6.2-2.4c-3.7-1.4-4.5-3.3-3-7.1l0.4-1l-4-1.5l-0.7,1.8
			c-2.4,6.4-1,10.2,4.8,12.4l5.1,2c3.6,1.4,4.5,2.9,3.3,5.9l5.3,2c1.1-3,2.7-3.6,6.3-2.2l5.9,2.3c5.8,2.2,9.6,0.3,12-6l0.7-1.8
			l-4-1.5l-0.4,1c-1.4,3.8-3.3,4.7-7,3.3l-6.9-2.6C452.4,277.1,449.8,277.8,448.4,280.6z"/>
	</g>
	<g>
		<path class="st3" d="M262.8,882.8l-0.3-0.3c2.3-2.2,2.2-4.7,0-7.4l-4.1-5.2c-2.5-3.1-2.2-5.1,1-7.6l0.9-0.7l-2.7-3.3l-1.5,1.2
			c-5.3,4.2-6,8.2-2.2,13l3.4,4.3c2.4,3,2.4,4.7-0.1,6.7l3.5,4.4c2.5-2,4.1-1.7,6.5,1.3l4,4.9c3.9,4.8,8,5.1,13.3,0.9l1.5-1.2
			l-2.7-3.4l-0.9,0.7c-3.1,2.5-5.2,2.4-7.6-0.7l-4.6-5.8C267.9,881.8,265.4,881.1,262.8,882.8z"/>
	</g>
	<g>
		<path class="st3" d="M1551.4,314.7l0-0.4c3.1-0.4,4.6-2.4,4.5-6l-0.2-6.7c-0.1-4,1.3-5.4,5.4-5.5l1.1,0l-0.1-4.3l-1.9,0.1
			c-6.8,0.2-9.8,3-9.6,9.1l0.2,5.5c0.1,3.9-0.9,5.2-4.1,5.3l0.2,5.6c3.2-0.1,4.3,1.2,4.4,5l0.2,6.4c0.2,6.2,3.4,9,10.2,8.8l1.9-0.1
			l-0.1-4.3l-1.1,0c-4,0.1-5.6-1.3-5.7-5.2l-0.2-7.4C1556.1,317,1554.4,314.9,1551.4,314.7z"/>
	</g>
	<g>
		<path class="st3" d="M1719.9,71.8l-0.2-0.4c2.7-1.7,3.1-4.2,1.5-7.3l-3-5.9c-1.8-3.5-1.2-5.4,2.5-7.3l1-0.5l-2-3.8l-1.7,0.9
			c-6.1,3.1-7.6,6.9-4.8,12.4l2.5,4.9c1.8,3.5,1.4,5.1-1.5,6.6l2.6,5c2.8-1.5,4.4-0.8,6.2,2.6l2.9,5.7c2.8,5.6,6.9,6.6,12.9,3.6
			l1.7-0.9l-2-3.9l-1,0.5c-3.6,1.8-5.6,1.3-7.4-2.2l-3.4-6.6C1725.2,71.8,1722.8,70.6,1719.9,71.8z"/>
	</g>
	<g>
		<path class="st3" d="M1877.3,35l-0.3-0.3c2-2.5,1.6-4.9-0.9-7.4l-4.8-4.6c-2.8-2.7-2.9-4.7,0-7.7l0.8-0.8l-3.1-3l-1.3,1.3
			c-4.7,4.9-4.9,9-0.5,13.2l4,3.8c2.8,2.7,3,4.4,0.8,6.7l4.1,3.9c2.2-2.3,3.9-2.2,6.7,0.5l4.6,4.4c4.5,4.3,8.7,4,13.4-0.8l1.3-1.3
			l-3.1-3l-0.8,0.8c-2.8,2.9-4.9,3-7.7,0.3l-5.3-5.1C1882.2,33.4,1879.6,33,1877.3,35z"/>
	</g>
	<g>
		<path class="st3" d="M1477.9,62.3l-0.4,0.1c-1-3-3.3-4-6.8-3.2l-6.5,1.6c-3.8,0.9-5.6-0.1-6.5-4.2l-0.3-1.1l-4.2,1l0.4,1.8
			c1.6,6.6,4.9,9,10.9,7.5l5.4-1.3c3.8-0.9,5.3-0.2,6.1,3l5.5-1.3c-0.7-3.1,0.2-4.5,4-5.4l6.2-1.5c6.1-1.5,8.1-5.2,6.5-11.7
			l-0.4-1.8l-4.2,1l0.3,1.1c0.9,3.9-0.1,5.7-3.9,6.7l-7.2,1.7C1479.2,57.2,1477.5,59.2,1477.9,62.3z"/>
	</g>
	<g>
		<path class="st3" d="M244.6,84.9l-0.3-0.3c2.1-2.4,1.8-4.9-0.7-7.4l-4.6-4.8c-2.7-2.8-2.7-4.8,0.3-7.7l0.8-0.8l-3-3.1l-1.3,1.3
			c-4.9,4.7-5.3,8.8-1,13.2l3.8,4c2.7,2.8,2.8,4.5,0.5,6.7l3.9,4.1c2.3-2.2,4-2.1,6.7,0.7l4.4,4.6c4.3,4.5,8.5,4.3,13.4-0.4l1.3-1.3
			l-3-3.1l-0.8,0.8c-2.9,2.8-5,2.8-7.7,0l-5.1-5.3C249.6,83.4,247,83,244.6,84.9z"/>
	</g>
	<g>
		<path class="st3" d="M161.8,128.6l-0.3-0.2c1.4-2.8,0.5-5.2-2.5-7l-5.6-3.5c-3.4-2.1-3.8-4-1.6-7.5l0.6-0.9l-3.6-2.3l-1,1.6
			c-3.6,5.8-2.9,9.8,2.3,13l4.7,2.9c3.3,2,3.8,3.7,2.1,6.4l4.8,3c1.7-2.7,3.3-3,6.6-0.9l5.4,3.3c5.3,3.3,9.3,2.1,12.9-3.6l1-1.6
			l-3.7-2.3l-0.6,0.9c-2.1,3.4-4.1,4-7.4,1.9l-6.3-3.9C166.3,125.9,163.7,126.1,161.8,128.6z"/>
	</g>
	<g>
		<path class="st3" d="M775.6,260.4l-0.2-0.3c2.5-1.9,2.7-4.4,0.7-7.4l-3.6-5.6c-2.2-3.3-1.7-5.3,1.7-7.5l0.9-0.6l-2.3-3.6l-1.6,1
			c-5.7,3.7-6.8,7.6-3.4,12.8l3,4.6c2.1,3.2,1.9,4.9-0.7,6.7l3.1,4.7c2.7-1.7,4.3-1.3,6.4,2l3.5,5.3c3.4,5.2,7.5,5.8,13.2,2.2l1.6-1
			l-2.4-3.6l-0.9,0.6c-3.4,2.2-5.4,1.8-7.5-1.4l-4-6.2C780.8,259.9,778.3,259,775.6,260.4z"/>
	</g>
	<g>
		<path class="st3" d="M707.4,444.2L707,444c1.1-2.9,0-5.2-3.2-6.7l-6-2.9c-3.6-1.7-4.2-3.6-2.4-7.3l0.5-1l-3.9-1.9l-0.8,1.7
			c-2.9,6.1-1.8,10,3.7,12.7l4.9,2.4c3.5,1.7,4.2,3.2,2.8,6.1l5.1,2.4c1.4-2.9,3-3.3,6.5-1.6l5.7,2.7c5.6,2.7,9.5,1.1,12.4-5
			l0.8-1.7l-3.9-1.9l-0.5,1c-1.7,3.6-3.7,4.4-7.2,2.7l-6.7-3.2C711.6,441,709,441.6,707.4,444.2z"/>
	</g>
	<g>
		<path class="st3" d="M1688.8,243.7l-0.3-0.2c1.5-2.8,0.7-5.1-2.2-7.1l-5.5-3.7c-3.3-2.2-3.6-4.2-1.3-7.6l0.6-0.9l-3.6-2.4l-1,1.6
			c-3.8,5.6-3.3,9.7,1.8,13.1l4.6,3.1c3.2,2.2,3.7,3.8,1.9,6.4l4.7,3.2c1.8-2.6,3.5-2.8,6.7-0.7l5.3,3.5c5.2,3.5,9.2,2.5,13-3.1
			l1-1.6l-3.6-2.4l-0.6,0.9c-2.3,3.3-4.3,3.8-7.5,1.6l-6.1-4.1C1693.4,241.2,1690.8,241.3,1688.8,243.7z"/>
	</g>
	<g>
		<path class="st3" d="M1872,229.8l-0.2-0.3c2.4-2,2.5-4.5,0.5-7.4l-3.8-5.4c-2.3-3.2-1.9-5.2,1.5-7.5l0.9-0.6l-2.5-3.5l-1.5,1.1
			c-5.5,3.9-6.5,7.8-3,12.9l3.1,4.5c2.2,3.2,2.1,4.9-0.5,6.7l3.2,4.6c2.6-1.8,4.2-1.4,6.4,1.8l3.6,5.2c3.6,5.1,7.7,5.6,13.2,1.7
			l1.5-1.1l-2.5-3.5l-0.9,0.6c-3.3,2.3-5.3,2-7.6-1.2l-4.2-6C1877.2,229.1,1874.7,228.3,1872,229.8z"/>
	</g>
	<g>
		<path class="st3" d="M1697.2,543.1l0.3,0.3c-1.9,2.5-1.6,5,1,7.4l4.8,4.6c2.9,2.7,2.9,4.7,0.1,7.7l-0.8,0.8l3.1,3l1.3-1.4
			c4.7-4.9,4.9-9,0.4-13.3l-4-3.8c-2.8-2.7-3-4.4-0.8-6.7l-4.1-3.9c-2.2,2.3-3.9,2.2-6.7-0.4l-4.6-4.4c-4.5-4.3-8.7-4-13.4,0.9
			l-1.3,1.4l3.1,3l0.8-0.8c2.8-2.9,4.9-3.1,7.7-0.4l5.4,5.1C1692.2,544.8,1694.9,545.1,1697.2,543.1z"/>
	</g>
	<g>
		<path class="st3" d="M492.7,655l-0.2-0.3c2.4-2.1,2.5-4.6,0.4-7.5l-3.9-5.4c-2.3-3.2-1.9-5.2,1.4-7.6l0.9-0.6l-2.5-3.5l-1.5,1.1
			c-5.5,4-6.5,7.9-2.9,13l3.2,4.5c2.3,3.2,2.1,4.9-0.5,6.7l3.3,4.6c2.6-1.9,4.2-1.4,6.5,1.7l3.7,5.2c3.6,5.1,7.8,5.6,13.3,1.6
			l1.5-1.1l-2.5-3.5l-0.9,0.6c-3.3,2.3-5.4,2.1-7.6-1.1l-4.3-6C497.9,654.3,495.4,653.5,492.7,655z"/>
	</g>
	<g>
		<path class="st3" d="M110.6,498.5l-0.4,0c0-3.1-1.8-4.9-5.4-5.2l-6.6-0.6c-3.9-0.4-5.2-2-4.8-6.1l0.1-1.1l-4.3-0.4l-0.2,1.9
			c-0.7,6.8,1.7,10.1,7.9,10.7l5.5,0.5c3.9,0.4,5.1,1.6,4.8,4.8l5.6,0.5c0.3-3.2,1.7-4.1,5.5-3.8l6.3,0.6c6.2,0.6,9.3-2.2,10-9
			l0.2-1.9l-4.3-0.4l-0.1,1.1c-0.4,4-2,5.4-5.8,5l-7.4-0.7C113.5,494.1,111.2,495.5,110.6,498.5z"/>
	</g>
	<g>
		<path class="st3" d="M120.5,376.2l-0.4,0c-0.4-3.1-2.4-4.6-6-4.5l-6.7,0.2c-4,0.1-5.4-1.3-5.5-5.4l0-1.1l-4.3,0.1l0.1,1.9
			c0.2,6.8,2.9,9.8,9.1,9.7l5.5-0.1c3.9-0.1,5.2,1,5.3,4.1l5.6-0.2c-0.1-3.2,1.2-4.3,5-4.4l6.4-0.2c6.2-0.2,9-3.4,8.8-10.1l-0.1-1.9
			l-4.3,0.1l0,1.1c0.1,4-1.3,5.6-5.2,5.7l-7.4,0.2C122.8,371.5,120.7,373.1,120.5,376.2z"/>
	</g>
	<g>
		<path class="st3" d="M245.4,371.7l-0.4-0.2c1-3-0.1-5.2-3.4-6.7l-6.1-2.8c-3.6-1.6-4.3-3.5-2.6-7.3l0.5-1l-3.9-1.8l-0.8,1.7
			c-2.8,6.2-1.6,10.1,4,12.7l5,2.3c3.5,1.6,4.3,3.1,3,6.1l5.1,2.3c1.3-2.9,2.9-3.4,6.5-1.8l5.8,2.6c5.7,2.6,9.5,0.9,12.3-5.3
			l0.8-1.7l-3.9-1.8l-0.5,1c-1.7,3.7-3.6,4.5-7.1,2.9l-6.8-3.1C249.5,368.4,246.9,369,245.4,371.7z"/>
	</g>
	<g>
		<path class="st3" d="M1434.9,737.3l0.1,0.4c-3,0.9-4.2,3.1-3.5,6.6l1.3,6.5c0.8,3.9-0.4,5.5-4.4,6.3l-1.1,0.2l0.8,4.2l1.8-0.4
			c6.7-1.3,9.2-4.5,8-10.6l-1.1-5.4c-0.8-3.8,0.1-5.3,3.2-5.9l-1.1-5.5c-3.1,0.6-4.5-0.4-5.2-4.2l-1.2-6.2c-1.2-6.1-4.8-8.3-11.5-7
			l-1.8,0.4l0.8,4.3l1.1-0.2c4-0.8,5.7,0.3,6.5,4.1l1.4,7.3C1429.8,735.8,1431.8,737.6,1434.9,737.3z"/>
	</g>
	<g>
		<path class="st3" d="M1737.3,852.7l0.2,0.4c-2.7,1.6-3.3,4-1.8,7.3l2.8,6c1.7,3.6,1,5.5-2.8,7.2l-1,0.5l1.8,3.9l1.7-0.8
			c6.2-2.9,7.8-6.6,5.2-12.2l-2.3-5c-1.7-3.5-1.2-5.2,1.7-6.5l-2.4-5.1c-2.9,1.4-4.4,0.7-6.1-2.8l-2.7-5.7c-2.7-5.7-6.7-6.9-12.8-4
			l-1.7,0.8l1.8,3.9l1-0.5c3.7-1.7,5.6-1.1,7.3,2.4l3.2,6.7C1732,852.5,1734.4,853.8,1737.3,852.7z"/>
	</g>
	<g>
		<path class="st3" d="M1508.2,521.6l0.2,0.3c-2.4,2.1-2.5,4.6-0.4,7.5l3.9,5.4c2.3,3.2,2,5.2-1.4,7.6l-0.9,0.6l2.5,3.5l1.5-1.1
			c5.5-4,6.5-7.9,2.9-13l-3.2-4.5c-2.3-3.2-2.1-4.9,0.5-6.7l-3.3-4.6c-2.6,1.9-4.2,1.5-6.5-1.7l-3.7-5.2c-3.6-5.1-7.8-5.5-13.3-1.6
			l-1.5,1.1l2.5,3.5l0.9-0.6c3.3-2.4,5.4-2.1,7.6,1.1l4.3,6C1502.9,522.4,1505.5,523.1,1508.2,521.6z"/>
	</g>
	<g>
		<path class="st3" d="M1850.2,696.1l0.3,0.3c-2.2,2.3-2,4.8,0.4,7.5l4.4,5c2.6,3,2.5,5-0.6,7.7l-0.8,0.7l2.9,3.2l1.4-1.2
			c5.1-4.5,5.6-8.6,1.5-13.2l-3.6-4.1c-2.6-2.9-2.6-4.6-0.2-6.7l-3.7-4.2c-2.4,2.1-4.1,1.9-6.6-1l-4.2-4.8
			c-4.1-4.7-8.3-4.7-13.4-0.2l-1.4,1.2l2.9,3.2l0.8-0.7c3-2.7,5.1-2.6,7.7,0.3l4.9,5.6C1845.1,697.4,1847.7,698,1850.2,696.1z"/>
	</g>
	<g>
		<path class="st3" d="M767.6,642l0.3,0.3c-2.1,2.4-1.9,4.9,0.6,7.5l4.6,4.9c2.7,2.9,2.6,4.9-0.4,7.7l-0.8,0.8l3,3.1l1.4-1.3
			c5-4.7,5.4-8.7,1.1-13.2l-3.8-4c-2.7-2.8-2.8-4.5-0.4-6.7l-3.9-4.1c-2.3,2.2-4,2-6.7-0.8l-4.3-4.6c-4.3-4.6-8.5-4.5-13.4,0.2
			l-1.4,1.3l3,3.2l0.8-0.8c2.9-2.8,5-2.8,7.7,0.1l5.1,5.4C762.5,643.4,765.1,643.8,767.6,642z"/>
	</g>
	<g>
		<path class="st3" d="M837.5,872.1l-0.4-0.1c0.3-3.1-1.4-5-4.9-5.6l-6.6-1.1c-3.9-0.7-5-2.3-4.3-6.4l0.2-1.1l-4.2-0.7l-0.3,1.8
			c-1.2,6.7,0.9,10.2,7,11.3l5.4,0.9c3.8,0.7,4.9,2,4.4,5.1l5.6,1c0.5-3.1,2-4,5.8-3.3l6.3,1.1c6.2,1.1,9.5-1.5,10.6-8.2l0.3-1.8
			l-4.3-0.7l-0.2,1.1c-0.7,4-2.4,5.2-6.2,4.6l-7.3-1.3C840.7,867.9,838.3,869.2,837.5,872.1z"/>
	</g>
	<g>
		<path class="st3" d="M341.2,1007.2l-0.2-0.4c2.6-1.8,2.9-4.3,1.1-7.4l-3.4-5.8c-2-3.4-1.5-5.4,2.1-7.4l1-0.6l-2.2-3.7l-1.6,0.9
			c-5.9,3.4-7.2,7.3-4.1,12.7l2.8,4.8c2,3.4,1.7,5-1.1,6.7l2.9,4.9c2.8-1.6,4.3-1.1,6.3,2.3l3.2,5.5c3.2,5.4,7.3,6.2,13.1,2.8
			l1.6-0.9l-2.2-3.7l-1,0.6c-3.5,2-5.5,1.6-7.5-1.8l-3.7-6.4C346.5,1006.9,344,1005.9,341.2,1007.2z"/>
	</g>
	<g>
		<path class="st3" d="M44.1,857.4l-0.2-0.4c2.7-1.7,3.2-4.1,1.6-7.3l-3-6c-1.8-3.5-1.1-5.4,2.6-7.3l1-0.5l-1.9-3.9l-1.7,0.8
			c-6.1,3.1-7.6,6.8-4.9,12.4l2.5,4.9c1.8,3.5,1.4,5.1-1.5,6.6l2.5,5c2.9-1.4,4.4-0.8,6.1,2.7l2.9,5.7c2.8,5.6,6.9,6.7,12.9,3.6
			l1.7-0.8l-1.9-3.9l-1,0.5c-3.6,1.8-5.6,1.2-7.4-2.3l-3.3-6.6C49.4,857.5,47,856.3,44.1,857.4z"/>
	</g>
	<g>
		<path class="st3" d="M132.9,730.4l-0.3-0.3c2.1-2.3,1.9-4.8-0.5-7.4l-4.5-4.9c-2.7-2.9-2.6-4.9,0.5-7.7l0.8-0.7l-2.9-3.2l-1.4,1.3
			c-5,4.6-5.4,8.6-1.3,13.1l3.7,4c2.6,2.8,2.7,4.5,0.4,6.7l3.8,4.1c2.3-2.2,4-2,6.6,0.9l4.3,4.6c4.2,4.6,8.4,4.5,13.3,0l1.4-1.3
			l-2.9-3.2l-0.8,0.7c-3,2.7-5,2.7-7.7-0.1l-5-5.4C138,729,135.4,728.5,132.9,730.4z"/>
	</g>
	<g>
		<path class="st3" d="M1122.1,501.3l-0.3-0.3c1.7-2.6,1.2-5.1-1.6-7.3l-5.2-4.2c-3.1-2.5-3.3-4.5-0.7-7.7l0.7-0.9l-3.3-2.7
			l-1.2,1.5c-4.3,5.3-4.1,9.4,0.7,13.3l4.3,3.5c3,2.4,3.3,4.1,1.3,6.6l4.4,3.6c2-2.5,3.7-2.5,6.7-0.1l4.9,4c4.8,3.9,9,3.3,13.2-2
			l1.2-1.5l-3.4-2.7l-0.7,0.9c-2.5,3.1-4.6,3.4-7.6,1l-5.8-4.7C1127,499.2,1124.3,499.1,1122.1,501.3z"/>
	</g>
	<g>
		<path class="st3" d="M1121.7,923.8l-0.3-0.3c2-2.4,1.7-4.9-0.8-7.4l-4.7-4.7c-2.8-2.8-2.8-4.8,0.2-7.7l0.8-0.8l-3-3.1l-1.3,1.3
			c-4.8,4.8-5.1,8.9-0.8,13.3l3.9,3.9c2.7,2.8,2.9,4.5,0.6,6.7l4,4c2.3-2.3,3.9-2.1,6.7,0.6l4.5,4.5c4.4,4.4,8.6,4.2,13.4-0.6
			l1.3-1.3l-3.1-3.1l-0.8,0.8c-2.9,2.8-5,2.9-7.7,0.2l-5.2-5.3C1126.7,922.2,1124.1,921.9,1121.7,923.8z"/>
	</g>
	<g>
		<path class="st3" d="M1807.5,963.9l0.1,0.4c-2.9,1.1-3.9,3.4-3,6.9l1.8,6.4c1,3.8,0,5.6-4,6.6l-1.1,0.3l1.1,4.2l1.8-0.5
			c6.6-1.8,8.8-5.2,7.2-11.2l-1.5-5.3c-1-3.8-0.3-5.3,2.8-6.1l-1.5-5.5c-3.1,0.8-4.5-0.1-5.5-3.8l-1.7-6.1c-1.6-6-5.4-7.9-11.9-6.1
			l-1.8,0.5l1.1,4.2l1.1-0.3c3.9-1.1,5.7-0.1,6.8,3.7l2,7.2C1802.4,962.8,1804.5,964.4,1807.5,963.9z"/>
	</g>
	<g>
		<path class="st3" d="M1706.4,1004.5l0.1,0.4c-3,1-4.1,3.2-3.3,6.7l1.5,6.5c0.9,3.9-0.2,5.5-4.3,6.4l-1.1,0.2l0.9,4.2l1.8-0.4
			c6.6-1.5,9.1-4.8,7.7-10.8l-1.2-5.4c-0.8-3.8-0.1-5.3,3-6l-1.2-5.5c-3.1,0.7-4.5-0.3-5.3-4.1l-1.4-6.2c-1.4-6.1-5-8.1-11.6-6.7
			l-1.8,0.4l0.9,4.2l1.1-0.2c3.9-0.9,5.7,0.2,6.6,4l1.6,7.2C1701.4,1003.1,1703.4,1004.9,1706.4,1004.5z"/>
	</g>
	<g>
		<path class="st3" d="M1307,876.1l0.1,0.4c-3,1-4,3.3-3.1,6.8l1.6,6.4c1,3.8-0.1,5.5-4.1,6.5l-1.1,0.3l1.1,4.2l1.8-0.5
			c6.6-1.7,8.9-5,7.4-11l-1.3-5.3c-0.9-3.8-0.2-5.3,2.9-6.1l-1.4-5.5c-3.1,0.8-4.5-0.2-5.4-3.9l-1.5-6.1c-1.5-6-5.2-8-11.8-6.4
			l-1.8,0.5l1.1,4.2l1.1-0.3c3.9-1,5.7,0,6.7,3.8l1.8,7.2C1301.9,874.8,1304,876.5,1307,876.1z"/>
	</g>
	<g>
		<path class="st3" d="M1295.9,997l-0.3,0.3c-2.5-1.9-5-1.4-7.4,1.3l-4.4,5c-2.6,3-4.6,3.1-7.7,0.4l-0.8-0.7l-2.8,3.2l1.4,1.2
			c5.1,4.5,9.2,4.5,13.3-0.1l3.6-4.1c2.6-2.9,4.2-3.2,6.7-1.1l3.7-4.2c-2.4-2.1-2.4-3.8,0.2-6.7l4.2-4.8c4.1-4.7,3.6-8.9-1.5-13.3
			l-1.4-1.2l-2.9,3.3l0.8,0.7c3,2.7,3.2,4.7,0.7,7.7l-4.9,5.6C1294,992,1293.8,994.7,1295.9,997z"/>
	</g>
	<g>
		<path class="st3" d="M1106.8,1053.4l-0.3-0.2c1.5-2.8,0.7-5.1-2.2-7.1l-5.5-3.7c-3.3-2.2-3.6-4.2-1.3-7.6l0.6-0.9l-3.6-2.4
			l-1.1,1.6c-3.8,5.6-3.3,9.7,1.8,13.2l4.6,3.1c3.2,2.2,3.7,3.8,1.9,6.5l4.7,3.2c1.8-2.6,3.5-2.8,6.7-0.7l5.3,3.6
			c5.2,3.5,9.2,2.5,13-3.1l1.1-1.6l-3.6-2.4l-0.6,0.9c-2.3,3.3-4.3,3.8-7.5,1.6l-6.1-4.2C1111.4,1050.9,1108.8,1051,1106.8,1053.4z"
			/>
	</g>
	<g>
		<path class="st3" d="M826.5,1033l-0.4-0.1c0.3-3.1-1.4-5-4.9-5.6l-6.5-1.2c-3.9-0.7-5-2.4-4.3-6.4l0.2-1.1l-4.2-0.8l-0.3,1.8
			c-1.2,6.7,0.9,10.2,6.9,11.3l5.4,1c3.8,0.7,4.9,2,4.3,5.1l5.5,1c0.6-3.1,2-4,5.8-3.3l6.2,1.1c6.1,1.1,9.4-1.4,10.7-8.1l0.3-1.8
			l-4.2-0.8l-0.2,1.1c-0.7,4-2.4,5.2-6.2,4.5l-7.3-1.3C829.8,1028.9,827.4,1030.1,826.5,1033z"/>
	</g>
	<g>
		<path class="st3" d="M1821.1,530.9l0.4,0c0.1,3.1,2,4.8,5.5,5l6.6,0.4c3.9,0.3,5.2,1.8,5,5.9l-0.1,1.1l4.3,0.3l0.1-1.9
			c0.4-6.8-2-10-8.2-10.4l-5.5-0.4c-3.9-0.2-5.1-1.4-4.9-4.6l-5.6-0.4c-0.2,3.2-1.5,4.2-5.4,3.9l-6.3-0.4c-6.2-0.4-9.2,2.5-9.6,9.3
			l-0.1,1.9l4.3,0.3l0.1-1.1c0.3-4,1.8-5.4,5.6-5.2l7.4,0.5C1818.4,535.4,1820.6,534,1821.1,530.9z"/>
	</g>
	<g>
		<path class="st3" d="M982.8,132.4l-0.1-0.4c2.8-1.4,3.6-3.8,2.3-7.1l-2.3-6.2c-1.4-3.7-0.5-5.5,3.3-7l1-0.4l-1.5-4l-1.8,0.7
			c-6.4,2.4-8.3,6-6.2,11.8l1.9,5.2c1.4,3.7,0.8,5.3-2.2,6.4l2,5.3c3-1.1,4.5-0.3,5.8,3.3l2.2,5.9c2.2,5.9,6.1,7.4,12.4,5l1.8-0.7
			l-1.5-4.1l-1,0.4c-3.8,1.4-5.7,0.6-7.1-3l-2.6-7C988,133,985.8,131.6,982.8,132.4z"/>
	</g>
	<g>
		<circle class="st3" cx="491.2" cy="130.7" r="2.7"/>
	</g>
	<g>
		<circle class="st3" cx="318.8" cy="196.2" r="2.7"/>
	</g>
	<g>
		<circle class="st3" cx="58.9" cy="234.7" r="2.7"/>
	</g>
	<g>
		<circle class="st3" cx="51.2" cy="423.8" r="2.7"/>
	</g>
	<g>
		<circle class="st3" cx="321.5" cy="608.3" r="2.7"/>
	</g>
	<g>
		<circle class="st3" cx="1713.3" cy="552.4" r="2.7"/>
	</g>
	<g>
		<circle class="st3" cx="1868.9" cy="419.8" r="2.7"/>
	</g>
	<g>
		<circle class="st3" cx="1611.7" cy="167.9" r="2.7"/>
	</g>
	<g>
		<circle class="st3" cx="84.6" cy="595.5" r="2.7"/>
	</g>
	<g>
		<circle class="st3" cx="147.1" cy="1009.1" r="2.7"/>
	</g>
	<g>
		<circle class="st3" cx="880.6" cy="513" r="2.7"/>
	</g>
	<g>
		<circle class="st3" cx="124.3" cy="1031.6" r="2.7"/>
	</g>
	<g>
		<circle class="st3" cx="16.4" cy="928.4" r="2.7"/>
	</g>
	<g>
		<circle class="st3" cx="15.6" cy="29.4" r="2.7"/>
	</g>
	<g>
		<circle class="st3" cx="764.5" cy="21.9" r="2.7"/>
	</g>
	<g>
		<circle class="st3" cx="295.6" cy="233.9" r="2.7"/>
	</g>
	<g>
		<circle class="st3" cx="460.6" cy="372.6" r="2.7"/>
	</g>
	<g>
		<circle class="st3" cx="423" cy="452.8" r="2.7"/>
	</g>
	<g>
		<circle class="st3" cx="1154" cy="673.6" r="2.7"/>
	</g>
	<g>
		<circle class="st3" cx="661.1" cy="635.5" r="2.7"/>
	</g>
	<g>
		<circle class="st3" cx="1782" cy="444" r="2.7"/>
	</g>
	<g>
		<circle class="st3" cx="1789.9" cy="581.3" r="2.7"/>
	</g>
	<g>
		<circle class="st3" cx="1836.9" cy="134.1" r="2.7"/>
	</g>
	<g>
		<circle class="st3" cx="1575.4" cy="857.1" r="2.7"/>
	</g>
	<g>
		<circle class="st3" cx="579.2" cy="496.9" r="2.7"/>
	</g>
	<g>
		<circle class="st3" cx="134.2" cy="8.3" r="2.7"/>
	</g>
	<g>
		<circle class="st3" cx="303.3" cy="183.8" r="2.7"/>
	</g>
	<g>
		<circle class="st3" cx="444" cy="200.9" r="2.7"/>
	</g>
	<g>
		<circle class="st3" cx="126.3" cy="694.5" r="2.7"/>
	</g>
	<g>
		<circle class="st3" cx="1301.4" cy="566.9" r="2.7"/>
	</g>
	<g>
		<circle class="st3" cx="954.5" cy="724.8" r="2.7"/>
	</g>
	<g>
		<circle class="st3" cx="367.2" cy="1049.3" r="2.7"/>
	</g>
	<g>
		<circle class="st3" cx="1509.8" cy="250.7" r="2.7"/>
	</g>
</g>
<g id="Layer_2">
	<g>
		<path class="st3" d="M1807.1,222.4l-0.6-5.2l-5.8,1.9l-1.2-10.7l-5,1.6l1.2,10.7l-6.9,2.2l-1.2-10.6l-5,1.6l1.2,10.7l-5.3,1.7
			l0.6,5.2l5.4-1.7l0.9,8.2l-5.6,1.8l0.6,5.2l5.5-1.8l1.2,11l5-1.6l-1.2-11l6.9-2.2l1.2,11l5-1.6l-1.3-11l5.7-1.8l-0.6-5.2l-5.6,1.8
			l-0.9-8.2C1801.2,224.2,1807.1,222.4,1807.1,222.4z M1789,227.7l7.5-2.4l1,9l-7.5,2.4L1789,227.7z"/>
	</g>
	<g>
		<path class="st3" d="M1053.6,58.7l4.1-3.2l-4.6-4l8.4-6.6l-4-3.4l-8.4,6.6l-5.5-4.7l8.4-6.6l-4-3.4l-8.4,6.6l-4.2-3.6l-4.1,3.2
			l4.3,3.7l-6.5,5l-4.4-3.8l-4.1,3.2l4.4,3.7l-8.7,6.8l4,3.4l8.7-6.8l5.4,4.7l-8.7,6.8l4,3.4l8.6-6.9l4.5,3.9l4.1-3.3l-4.4-3.8
			l6.5-5C1048.9,54.7,1053.6,58.7,1053.6,58.7z M1039.6,46.2l5.9,5.1l-7.1,5.5l-6-5.1L1039.6,46.2z"/>
	</g>
	<g>
		<path class="st3" d="M841.7,31.5l-2.6-4.5l-4.6,4l-5.4-9.3l-4,3.5l5.4,9.3l-5.4,4.8l-5.4-9.3l-3.9,3.5l5.4,9.3l-4.2,3.7l2.6,4.5
			l4.3-3.7l4.1,7.1l-4.4,3.9l2.6,4.5l4.3-3.8l5.5,9.6l4-3.5l-5.5-9.6l5.4-4.8l5.5,9.6l4-3.5l-5.6-9.6l4.5-3.9l-2.7-4.5l-4.4,3.9
			l-4.1-7.1C837.1,35.6,841.7,31.5,841.7,31.5z M827.3,43.7l5.9-5.2l4.5,7.9l-5.9,5.2L827.3,43.7z"/>
	</g>
	<g>
		<path class="st3" d="M587.1,142.3l-1.3-5l-5.5,2.6l-2.6-10.4l-4.8,2.3l2.6,10.4l-6.5,3.1l-2.7-10.4l-4.7,2.3l2.6,10.4l-5.1,2.4
			l1.3,5l5.1-2.4l2,8l-5.3,2.5l1.3,5.1l5.2-2.5l2.7,10.8l4.8-2.3l-2.7-10.8l6.5-3.1l2.7,10.8l4.8-2.3l-2.8-10.7l5.4-2.6l-1.3-5.1
			l-5.3,2.5l-2-8C581.5,145,587.1,142.3,587.1,142.3z M569.9,150.1l7.1-3.4l2.2,8.8l-7.1,3.4L569.9,150.1z"/>
	</g>
	<g>
		<path class="st3" d="M905.7,381.7l-5.2,0.5l1.8,5.9l-10.6,1l1.5,5l10.6-1l2.1,6.9l-10.6,1.1l1.5,5l10.7-1l1.6,5.4l5.2-0.5
			l-1.6-5.4l8.2-0.7l1.7,5.6l5.2-0.5l-1.7-5.5l11-1.1l-1.5-5l-11,1l-2.1-6.9l11-1.1l-1.5-5l-11,1.1l-1.7-5.7l-5.2,0.6l1.7,5.6
			l-8.2,0.7C907.5,387.6,905.7,381.7,905.7,381.7z M910.8,399.8l-2.3-7.5l9-0.8l2.3,7.6L910.8,399.8z"/>
	</g>
	<g>
		<path class="st3" d="M148.6,725.5l-2.1-4.8l-5,3.5l-4.3-9.8l-4.3,3l4.3,9.8l-5.9,4.1l-4.3-9.8l-4.3,3l4.3,9.8l-4.6,3.2l2.1,4.8
			l4.6-3.2l3.3,7.6l-4.8,3.4l2.1,4.8l4.7-3.3l4.4,10.2l4.3-3l-4.4-10.2l5.9-4.1l4.4,10.2l4.3-3l-4.5-10.1l4.9-3.4l-2.1-4.8l-4.8,3.3
			l-3.3-7.6C143.6,729.1,148.6,725.5,148.6,725.5z M132.9,736l6.5-4.5l3.6,8.3l-6.5,4.5L132.9,736z"/>
	</g>
	<g>
		<path class="st3" d="M503.2,875.5l-5.1-0.8l0.2,6.1l-10.5-1.7l0.2,5.2l10.5,1.7l0.2,7.2l-10.5-1.7l0.2,5.2l10.5,1.8l0.2,5.6
			l5.1,0.8l-0.2-5.6l8.1,1.4l0.2,5.8l5.1,0.9l-0.2-5.7l10.9,1.8l-0.2-5.2l-10.9-1.8l-0.2-7.2l10.9,1.8l-0.2-5.2l-10.9-1.7l-0.2-5.9
			l-5.1-0.8l0.2,5.8l-8.1-1.4C503.4,881.6,503.2,875.5,503.2,875.5z M503.4,894.3l-0.3-7.8l8.9,1.5l0.3,7.9L503.4,894.3z"/>
	</g>
	<g>
		<path class="st3" d="M1851.3,812.2l-3.9-3.5l-3.2,5.2l-7.9-7.3l-2.7,4.5l7.9,7.3l-3.8,6.2l-7.9-7.2l-2.7,4.5l7.9,7.3l-2.9,4.8
			l3.9,3.5l2.9-4.8l6,5.6l-3.1,5l3.9,3.6l3-4.9l8.2,7.5l2.7-4.5l-8.1-7.5l3.7-6.2l8.2,7.5l2.7-4.5l-8.2-7.5l3.1-5.1l-3.9-3.5l-3,5
			l-6-5.6C1848.1,817.5,1851.3,812.2,1851.3,812.2z M1841.1,828.1l4.1-6.7l6.6,6.2l-4.1,6.8L1841.1,828.1z"/>
	</g>
	<g>
		<path class="st3" d="M1604.6,670.1l3.1-4.2l-5.5-2.6l6.4-8.6l-4.8-2.3l-6.4,8.6l-6.5-3.1l6.4-8.6l-4.7-2.2l-6.4,8.6l-5.1-2.4
			l-3.1,4.2l5.1,2.4l-5,6.6l-5.3-2.5l-3.1,4.2l5.2,2.5l-6.6,8.9l4.8,2.3l6.7-8.9l6.5,3.1l-6.6,8.9l4.8,2.3l6.6-8.9l5.4,2.6l3.1-4.2
			l-5.3-2.5l5-6.6C1599,667.5,1604.6,670.1,1604.6,670.1z M1587.7,661.7l7.1,3.4l-5.4,7.2l-7.2-3.4L1587.7,661.7z"/>
	</g>
	<g>
		<path class="st3" d="M1287.5,75.5l1-5.1h-6.1l2.1-10.5h-5.3l-2.1,10.5h-7.2l2.1-10.5h-5.2l-2.1,10.5h-5.6l-1,5.1h5.7l-1.7,8.1
			h-5.9l-1,5.1h5.8l-2.2,10.9h5.3l2.2-10.9h7.2l-2.2,10.9h5.3l2.1-10.9h6l1-5.1h-5.8l1.7-8.1C1281.3,75.5,1287.5,75.5,1287.5,75.5z
			 M1268.6,75.1h7.9l-1.8,8.9h-7.9L1268.6,75.1z"/>
	</g>
	<g>
		<path class="st3" d="M64.2,101.4l1-5.1h-6.1l2.1-10.5h-5.3l-2.1,10.5h-7.2l2.1-10.5h-5.2l-2.1,10.5h-5.6l-1,5.1h5.7l-1.7,8.1h-5.9
			l-1,5.1h5.8l-2.2,10.9h5.3l2.2-10.9h7.2l-2.2,10.9h5.3l2.1-10.9h6l1-5.1h-5.8l1.7-8.1C58,101.4,64.2,101.4,64.2,101.4z M45.3,101
			h7.9l-1.8,8.9h-7.9L45.3,101z"/>
	</g>
	<g>
		<path class="st3" d="M323.5,219.8l1-5.1h-6.1l2.1-10.5h-5.3l-2.1,10.5h-7.2l2.1-10.5h-5.2l-2.1,10.5H295l-1,5.1h5.7l-1.7,8.1h-5.9
			l-1,5.1h5.8l-2.2,10.9h5.3l2.2-10.9h7.2l-2.2,10.9h5.3l2.1-10.9h6l1-5.1h-5.8l1.7-8.1C317.3,219.8,323.5,219.8,323.5,219.8z
			 M304.6,219.5h7.9l-1.8,8.9h-7.9L304.6,219.5z"/>
	</g>
	<g>
		<path class="st3" d="M1335.7,448.9l1-5.1h-6.1l2.1-10.5h-5.3l-2.1,10.5h-7.2l2.1-10.5h-5.2l-2.1,10.5h-5.6l-1,5.1h5.7l-1.7,8.1
			h-5.9l-1,5.1h5.8l-2.2,10.9h5.3l2.2-10.9h7.2l-2.2,10.9h5.3l2.1-10.9h6l1-5.1h-5.8l1.7-8.1
			C1329.5,448.9,1335.7,448.9,1335.7,448.9z M1316.8,448.5h7.9l-1.8,8.9h-7.9L1316.8,448.5z"/>
	</g>
	<g>
		<path class="st3" d="M1712.1,440.7l1-5.1h-6.1l2.1-10.5h-5.3l-2.1,10.5h-7.2l2.1-10.5h-5.2l-2.1,10.5h-5.6l-1,5.1h5.7l-1.7,8.1
			h-5.9l-1,5.1h5.8l-2.2,10.9h5.3l2.2-10.9h7.2l-2.2,10.9h5.3l2.1-10.9h6l1-5.1h-5.8l1.7-8.1
			C1705.9,440.7,1712.1,440.7,1712.1,440.7z M1693.3,440.3h7.9l-1.8,8.9h-7.9L1693.3,440.3z"/>
	</g>
	<g>
		<path class="st3" d="M1187.8,270.2l1-5.1h-6.1l2.1-10.5h-5.3l-2.1,10.5h-7.2l2.1-10.5h-5.2l-2.1,10.5h-5.6l-1,5.1h5.7l-1.7,8.1
			h-5.9l-1,5.1h5.8l-2.2,10.9h5.3l2.2-10.9h7.2l-2.2,10.9h5.3l2.1-10.9h6l1-5.1h-5.8l1.7-8.1
			C1181.6,270.2,1187.8,270.2,1187.8,270.2z M1169,269.8h7.9l-1.8,8.9h-7.9L1169,269.8z"/>
	</g>
	<g>
		<path class="st3" d="M1830.6,608.7l1-5.1h-6.1l2.1-10.5h-5.3l-2.1,10.5h-7.2l2.1-10.5h-5.2l-2.1,10.5h-5.6l-1,5.1h5.7l-1.7,8.1
			h-5.9l-1,5.1h5.8l-2.2,10.9h5.3l2.2-10.9h7.2l-2.2,10.9h5.3l2.1-10.9h6l1-5.1h-5.8l1.7-8.1
			C1824.4,608.7,1830.6,608.7,1830.6,608.7z M1811.7,608.3h7.9l-1.8,8.9h-7.9L1811.7,608.3z"/>
	</g>
	<g>
		<circle class="st3" cx="1774.1" cy="165.2" r="2.7"/>
	</g>
	<g>
		<circle class="st3" cx="951.8" cy="925.7" r="2.7"/>
	</g>
	<g>
		<circle class="st3" cx="1232.4" cy="183.7" r="2.7"/>
	</g>
	<g>
		<circle class="st3" cx="1120.5" cy="150.3" r="2.7"/>
	</g>
	<g>
		<circle class="st3" cx="14.9" cy="253.5" r="2.7"/>
	</g>
	<g>
		<circle class="st3" cx="213.6" cy="576.7" r="2.7"/>
	</g>
	<g>
		<circle class="st3" cx="877.9" cy="652.9" r="2.7"/>
	</g>
	<g>
		<circle class="st3" cx="1114.2" cy="625.9" r="2.7"/>
	</g>
	<g>
		<circle class="st3" cx="1301.4" cy="658.5" r="2.7"/>
	</g>
	<g>
		<circle class="st3" cx="1665" cy="352" r="2.7"/>
	</g>
	<g>
		<circle class="st3" cx="1670.4" cy="583.9" r="2.7"/>
	</g>
	<g>
		<circle class="st3" cx="1710.6" cy="741.6" r="2.7"/>
	</g>
	<g>
		<circle class="st3" cx="658.4" cy="302.3" r="2.7"/>
	</g>
	<g>
		<circle class="st3" cx="1090.9" cy="380.7" r="2.7"/>
	</g>
	<g>
		<circle class="st3" cx="1684.8" cy="844.2" r="2.7"/>
	</g>
	<g>
		<circle class="st3" cx="1801.7" cy="1066" r="2.7"/>
	</g>
	<g>
		<circle class="st3" cx="109.2" cy="953.2" r="2.7"/>
	</g>
	<g>
		<circle class="st3" cx="1016.2" cy="566.9" r="2.7"/>
	</g>
	<g>
		<circle class="st3" cx="735.1" cy="102.9" r="2.7"/>
	</g>
	<g>
		<circle class="st3" cx="386.7" cy="145.9" r="2.7"/>
	</g>
	<g>
		<circle class="st3" cx="1459.6" cy="988.9" r="2.7"/>
	</g>
	<g>
		<circle class="st3" cx="316.6" cy="771.3" r="2.7"/>
	</g>
	<g>
		<circle class="st3" cx="1825.9" cy="305" r="2.7"/>
	</g>
	<g>
		<circle class="st3" cx="1880.2" cy="92.8" r="2.7"/>
	</g>
	<g>
		<circle class="st3" cx="1221.8" cy="763.1" r="2.7"/>
	</g>
	<g>
		<circle class="st3" cx="1001.6" cy="278.7" r="2.7"/>
	</g>
	<g>
		<circle class="st3" cx="429.6" cy="543.7" r="2.7"/>
	</g>
	<g>
		<circle class="st3" cx="299.1" cy="465.7" r="2.7"/>
	</g>
	<g>
		<circle class="st3" cx="203.3" cy="231.4" r="2.7"/>
	</g>
	<g>
		<circle class="st3" cx="155" cy="796.7" r="2.7"/>
	</g>
	<g>
		<circle class="st3" cx="1359.3" cy="327.6" r="2.7"/>
	</g>
	<g>
		<circle class="st3" cx="655.7" cy="871.6" r="2.7"/>
	</g>
	<g>
		<circle class="st3" cx="1429.7" cy="868.9" r="2.7"/>
	</g>
	<g>
		<circle class="st3" cx="1645.8" cy="1051.9" r="2.7"/>
	</g>
	<g>
		<circle class="st3" cx="692.3" cy="744.3" r="2.7"/>
	</g>
	<g>
		<circle class="st3" cx="380.9" cy="968.7" r="2.7"/>
	</g>
	<g>
		<circle class="st3" cx="1377.2" cy="186.4" r="2.7"/>
	</g>
	<g>
		<circle class="st3" cx="1422.6" cy="10.1" r="2.7"/>
	</g>
</g>
</svg>
