<svg xmlns="http://www.w3.org/2000/svg" viewBox="0 0 1920 1080"><title>colorbg</title><circle cx="1765.03" cy="167.61" r="2.68" style="fill:#3ea3ff"/><circle cx="1219.75" cy="153.41" r="2.68" style="fill:#3ea3ff"/><circle cx="639.8" cy="61.78" r="2.68" style="fill:#3ea3ff"/><circle cx="234.65" cy="194.77" r="2.68" style="fill:#3ea3ff"/><circle cx="191.72" cy="217.96" r="2.68" style="fill:#3ea3ff"/><circle cx="37.89" cy="388.01" r="2.68" style="fill:#3ea3ff"/><circle cx="67.19" cy="483.85" r="2.68" style="fill:#3ea3ff"/><circle cx="308.55" cy="634.38" r="2.68" style="fill:#3ea3ff"/><circle cx="335.17" cy="645.17" r="2.68" style="fill:#3ea3ff"/><circle cx="421.61" cy="669.16" r="2.68" style="fill:#3ea3ff"/><circle cx="1902.83" cy="356.06" r="2.68" style="fill:#3ea3ff"/><circle cx="1478.49" cy="176.7" r="2.68" style="fill:#3ea3ff"/><circle cx="1480.05" cy="319.04" r="2.68" style="fill:#3ea3ff"/><circle cx="1612.2" cy="541.56" r="2.68" style="fill:#3ea3ff"/><circle cx="1668.26" cy="758.96" r="2.68" style="fill:#3ea3ff"/><circle cx="1620.76" cy="805.07" r="2.68" style="fill:#3ea3ff"/><circle cx="1368.62" cy="760.81" r="2.68" style="fill:#3ea3ff"/><circle cx="801.19" cy="494.92" r="2.68" style="fill:#3ea3ff"/><circle cx="377.82" cy="369.05" r="2.68" style="fill:#3ea3ff"/><circle cx="241.17" cy="389.34" r="2.68" style="fill:#3ea3ff"/><circle cx="100.23" cy="521.97" r="2.68" style="fill:#3ea3ff"/><circle cx="118.72" cy="772.53" r="2.68" style="fill:#3ea3ff"/><circle cx="235.29" cy="647.76" r="2.68" style="fill:#3ea3ff"/><circle cx="1691.85" cy="860.53" r="2.68" style="fill:#3ea3ff"/><circle cx="1878.88" cy="625.72" r="2.68" style="fill:#3ea3ff"/><circle cx="1648.27" cy="1055.99" r="2.68" style="fill:#3ea3ff"/><circle cx="1750.69" cy="1041.53" r="2.68" style="fill:#3ea3ff"/><circle cx="376.23" cy="909.46" r="2.68" style="fill:#3ea3ff"/><circle cx="208.59" cy="880.04" r="2.68" style="fill:#3ea3ff"/><circle cx="122.16" cy="953.11" r="2.68" style="fill:#3ea3ff"/><circle cx="5.44" cy="443.43" r="2.68" style="fill:#3ea3ff"/><circle cx="17.99" cy="17.11" r="2.68" style="fill:#3ea3ff"/><circle cx="856.77" cy="137.14" r="2.68" style="fill:#3ea3ff"/><circle cx="620.39" cy="433.4" r="2.68" style="fill:#3ea3ff"/><circle cx="445.04" cy="381.71" r="2.68" style="fill:#3ea3ff"/><circle cx="701.11" cy="683.34" r="2.68" style="fill:#3ea3ff"/><circle cx="921.83" cy="722" r="2.68" style="fill:#3ea3ff"/><circle cx="924.34" cy="713.08" r="2.68" style="fill:#3ea3ff"/><circle cx="1052.32" cy="991.69" r="2.68" style="fill:#3ea3ff"/><circle cx="545.82" cy="875.79" r="2.68" style="fill:#3ea3ff"/><circle cx="537.44" cy="631.79" r="2.68" style="fill:#3ea3ff"/><circle cx="367.5" cy="769.54" r="2.68" style="fill:#3ea3ff"/><circle cx="1663.56" cy="282.92" r="2.68" style="fill:#3ea3ff"/><circle cx="1538.06" cy="944.02" r="2.68" style="fill:#3ea3ff"/><circle cx="1219.95" cy="754.13" r="2.68" style="fill:#3ea3ff"/><circle cx="1057.02" cy="745.2" r="2.68" style="fill:#3ea3ff"/><circle cx="280.42" cy="511.02" r="2.68" style="fill:#3ea3ff"/><circle cx="204.76" cy="377.25" r="2.68" style="fill:#3ea3ff"/><circle cx="163.94" cy="794.28" r="2.68" style="fill:#3ea3ff"/><circle cx="644.14" cy="855.74" r="2.68" style="fill:#3ea3ff"/><circle cx="1914.31" cy="766.02" r="2.68" style="fill:#3ea3ff"/><circle cx="1150.77" cy="771.26" r="2.68" style="fill:#3ea3ff"/><circle cx="748.16" cy="845.75" r="2.68" style="fill:#3ea3ff"/><circle cx="884.79" cy="331.51" r="2.68" style="fill:#3ea3ff"/></svg>
