<svg xmlns="http://www.w3.org/2000/svg" viewBox="0 0 1920 1080"><title>colorbg</title><path d="M1807.14,222.36l-0.61-5.18L1800.7,219l-1.2-10.65-5,1.6,1.2,10.65-6.88,2.19-1.24-10.64-5,1.59,1.19,10.67-5.35,1.7,0.61,5.18,5.4-1.72,0.87,8.19-5.6,1.78,0.58,5.22,5.51-1.75,1.22,11,5-1.6-1.2-11,6.86-2.19,1.22,11,5-1.6-1.3-11,5.68-1.81-0.63-5.2-5.57,1.77-0.87-8.19ZM1789,227.71l7.49-2.39,1,9-7.54,2.4Z" style="fill:#3ea3ff"/><path d="M1053.59,58.69l4.06-3.23-4.63-4,8.39-6.6-4-3.41-8.39,6.6-5.46-4.67,8.36-6.62-4-3.39-8.41,6.6-4.25-3.63-4.06,3.23,4.28,3.67-6.47,5-4.45-3.81-4.11,3.23,4.37,3.74-8.7,6.81,4,3.42,8.71-6.8,5.45,4.66-8.7,6.81,4,3.41,8.65-6.88,4.51,3.86,4.07-3.26-4.42-3.78,6.47-5Zm-14-12.52,5.95,5.09-7.11,5.55-6-5.12Z" style="fill:#3ea3ff"/><path d="M841.72,31.54L839.08,27l-4.6,4-5.38-9.27-4,3.48,5.38,9.27-5.42,4.77-5.4-9.25-3.93,3.45,5.37,9.3-4.22,3.71,2.63,4.5,4.25-3.74,4.08,7.15-4.41,3.88,2.63,4.55,4.34-3.82L836,68.67l4-3.49-5.53-9.62,5.41-4.76,5.54,9.61,4-3.48-5.61-9.57,4.48-3.94-2.67-4.51-4.39,3.86-4.08-7.15ZM827.28,43.7l5.91-5.19,4.5,7.86-5.94,5.23Z" style="fill:#3ea3ff"/><path d="M587.08,142.31l-1.31-5-5.53,2.64-2.65-10.39-4.75,2.27,2.65,10.39L569,145.29l-2.68-10.37-4.72,2.26,2.64,10.41L559.15,150l1.31,5,5.11-2.44,2,8-5.3,2.53,1.29,5.09,5.21-2.49,2.72,10.76,4.77-2.28-2.7-10.77,6.5-3.1,2.72,10.76,4.75-2.27-2.8-10.74,5.38-2.57-1.34-5.07L583.47,153l-2-8Zm-17.21,7.78,7.1-3.39,2.2,8.79L572,158.9Z" style="fill:#3ea3ff"/><path d="M905.7,381.67l-5.17.53,1.77,5.85-10.65,1,1.52,5,10.65-1,2.08,6.9L895.26,401l1.51,5,10.67-1,1.62,5.36,5.17-.53-1.63-5.41,8.18-.74,1.7,5.61,5.21-.5L926,403.29l11-1.05-1.52-5-11,1-2.08-6.88,11-1.05-1.52-5-11,1.13-1.72-5.69-5.2.55,1.69,5.58-8.18.74Zm5.07,18.14-2.27-7.51,9-.84,2.28,7.56Z" style="fill:#3ea3ff"/><path d="M148.65,725.51l-2.11-4.77-5,3.5-4.3-9.82-4.32,3,4.3,9.82-5.92,4.13-4.33-9.8-4.29,3,4.29,9.84-4.61,3.21,2.11,4.77,4.65-3.24,3.25,7.56-4.82,3.36,2.1,4.81,4.74-3.3,4.42,10.18,4.33-3-4.41-10.19,5.91-4.12L149,754.62l4.32-3-4.5-10.14,4.89-3.41-2.14-4.78-4.8,3.34-3.25-7.56ZM132.93,736l6.45-4.5L143,739.8l-6.49,4.52Z" style="fill:#3ea3ff"/><path d="M503.2,875.48l-5.12-.82,0.2,6.09L487.77,879l0.17,5.23L498.45,886l0.23,7.17-10.51-1.7,0.17,5.2,10.53,1.75L499,904l5.12,0.82L504,899.17l8.07,1.39,0.19,5.84,5.15,0.86-0.19-5.74,10.88,1.82-0.17-5.25L517,896.25l-0.23-7.16,10.88,1.82-0.17-5.23-10.89-1.74L516.42,878l-5.15-.81,0.19,5.81-8.07-1.39Zm0.21,18.77-0.25-7.82,8.88,1.51,0.25,7.86Z" style="fill:#3ea3ff"/><path d="M1851.29,812.2l-3.85-3.51-3.19,5.23-7.89-7.25-2.74,4.5,7.89,7.25-3.76,6.17-7.91-7.22-2.72,4.47,7.9,7.28-2.92,4.79,3.85,3.51,2.95-4.84,6,5.61-3.06,5,3.86,3.56,3-4.94,8.15,7.53,2.75-4.51-8.15-7.54,3.75-6.15,8.15,7.53,2.74-4.5-8.21-7.46,3.1-5.09-3.89-3.51-3,5-6-5.61Zm-10.16,15.91,4.09-6.72,6.64,6.16-4.12,6.76Z" style="fill:#3ea3ff"/><path d="M1604.55,670.14l3.09-4.2-5.54-2.63,6.39-8.6-4.76-2.26-6.39,8.6-6.52-3.1,6.36-8.62-4.73-2.24-6.42,8.61-5.07-2.41-3.09,4.2,5.12,2.43-5,6.58-5.31-2.52-3.14,4.21,5.22,2.48-6.64,8.89,4.77,2.26,6.65-8.88,6.51,3.09-6.64,8.89,4.76,2.26,6.57-8.94,5.39,2.56,3.09-4.23-5.28-2.51,5-6.58Zm-16.88-8.45,7.11,3.37-5.44,7.24-7.15-3.39Z" style="fill:#3ea3ff"/><path d="M1287.47,75.5l1-5.12h-6.13l2.09-10.51h-5.27l-2.09,10.51h-7.22l2.05-10.51h-5.23l-2.1,10.53H1259l-1,5.12h5.66L1262,83.58h-5.88l-1,5.15h5.78l-2.19,10.88h5.28l2.2-10.88h7.2l-2.19,10.88h5.27l2.1-10.9h6l1-5.15h-5.85l1.66-8.06h6.19Zm-18.88-.4h7.87l-1.8,8.88h-7.92Z" style="fill:#3ea3ff"/><path d="M64.2,101.38l1-5.12H59.06l2.09-10.51H55.88L53.8,96.26H46.58l2.05-10.51H43.4L41.3,96.28H35.68l-1,5.12h5.66l-1.66,8.06H32.82l-1,5.15h5.78l-2.19,10.88h5.28l2.2-10.88h7.2l-2.19,10.88h5.27l2.1-10.9h6l1-5.15H56.35L58,101.38H64.2ZM45.32,101h7.87l-1.8,8.88H43.46Z" style="fill:#3ea3ff"/><path d="M323.49,219.85l1-5.12h-6.13l2.09-10.51h-5.27l-2.09,10.51h-7.22l2.05-10.51h-5.23l-2.1,10.53H295l-1,5.12h5.66L298,227.93h-5.88l-1,5.15h5.78L294.67,244H300l2.2-10.88h7.2L307.18,244h5.27l2.1-10.9h6l1-5.15h-5.85l1.66-8.06h6.19Zm-18.88-.4h7.87l-1.8,8.88h-7.92Z" style="fill:#3ea3ff"/><path d="M1335.7,448.86l1-5.12h-6.13l2.09-10.51h-5.27l-2.09,10.51h-7.22l2.05-10.51h-5.23l-2.1,10.53h-5.61l-1,5.12h5.66l-1.66,8.06h-5.88l-1,5.15h5.78L1306.88,473h5.28l2.2-10.88h7.2L1319.39,473h5.27l2.1-10.9h6l1-5.15h-5.85l1.66-8.06h6.19Zm-18.88-.4h7.87l-1.8,8.88H1315Z" style="fill:#3ea3ff"/><path d="M1712.14,440.68l1-5.12H1707l2.09-10.51h-5.27l-2.09,10.51h-7.22l2.05-10.51h-5.23l-2.1,10.53h-5.61l-1,5.12h5.66l-1.66,8.06h-5.88l-1,5.15h5.78l-2.19,10.88h5.28l2.2-10.88h7.2l-2.19,10.88h5.27l2.1-10.9h6l1-5.15h-5.85l1.66-8.06h6.19Zm-18.88-.4h7.87l-1.8,8.88h-7.92Z" style="fill:#3ea3ff"/><path d="M1187.83,270.19l1-5.12h-6.13l2.09-10.51h-5.27l-2.09,10.51h-7.22l2.05-10.51H1167l-2.1,10.53h-5.61l-1,5.12H1164l-1.66,8.06h-5.88l-1,5.15h5.78L1159,294.3h5.28l2.2-10.88h7.2l-2.19,10.88h5.27l2.1-10.9h6l1-5.15H1180l1.66-8.06h6.19Zm-18.88-.4h7.87l-1.8,8.88h-7.92Z" style="fill:#3ea3ff"/><path d="M1830.63,608.7l1-5.12h-6.13l2.09-10.51h-5.27l-2.09,10.51H1813l2.05-10.51h-5.23l-2.1,10.53h-5.61l-1,5.12h5.66l-1.66,8.06h-5.88l-1,5.15H1804l-2.19,10.88h5.28l2.2-10.88h7.2l-2.19,10.88h5.27l2.1-10.9h6l1-5.15h-5.85l1.66-8.06h6.19Zm-18.88-.4h7.87l-1.8,8.88h-7.92Z" style="fill:#3ea3ff"/><circle cx="1774.11" cy="165.18" r="2.68" style="fill:#3ea3ff"/><circle cx="951.78" cy="925.71" r="2.68" style="fill:#3ea3ff"/><circle cx="1232.36" cy="183.69" r="2.68" style="fill:#3ea3ff"/><circle cx="1120.48" cy="150.31" r="2.68" style="fill:#3ea3ff"/><circle cx="14.92" cy="253.51" r="2.68" style="fill:#3ea3ff"/><circle cx="213.57" cy="576.75" r="2.68" style="fill:#3ea3ff"/><circle cx="877.89" cy="652.93" r="2.68" style="fill:#3ea3ff"/><circle cx="1114.25" cy="625.92" r="2.68" style="fill:#3ea3ff"/><circle cx="1301.36" cy="658.47" r="2.68" style="fill:#3ea3ff"/><circle cx="1665" cy="351.99" r="2.68" style="fill:#3ea3ff"/><circle cx="1670.36" cy="583.94" r="2.68" style="fill:#3ea3ff"/><circle cx="1710.64" cy="741.64" r="2.68" style="fill:#3ea3ff"/><circle cx="658.41" cy="302.29" r="2.68" style="fill:#3ea3ff"/><circle cx="1090.91" cy="380.71" r="2.68" style="fill:#3ea3ff"/><circle cx="1684.82" cy="844.21" r="2.68" style="fill:#3ea3ff"/><circle cx="1801.68" cy="1065.99" r="2.68" style="fill:#3ea3ff"/><circle cx="109.19" cy="953.23" r="2.68" style="fill:#3ea3ff"/><circle cx="1016.19" cy="566.88" r="2.68" style="fill:#3ea3ff"/><circle cx="735.15" cy="102.95" r="2.68" style="fill:#3ea3ff"/><circle cx="386.69" cy="145.9" r="2.68" style="fill:#3ea3ff"/><circle cx="1459.56" cy="988.86" r="2.68" style="fill:#3ea3ff"/><circle cx="316.62" cy="771.28" r="2.68" style="fill:#3ea3ff"/><circle cx="1825.93" cy="304.97" r="2.68" style="fill:#3ea3ff"/><circle cx="1880.19" cy="92.82" r="2.68" style="fill:#3ea3ff"/><circle cx="1221.82" cy="763.14" r="2.68" style="fill:#3ea3ff"/><circle cx="1001.56" cy="278.67" r="2.68" style="fill:#3ea3ff"/><circle cx="429.58" cy="543.69" r="2.68" style="fill:#3ea3ff"/><circle cx="299.1" cy="465.68" r="2.68" style="fill:#3ea3ff"/><circle cx="203.26" cy="231.4" r="2.68" style="fill:#3ea3ff"/><circle cx="154.98" cy="796.72" r="2.68" style="fill:#3ea3ff"/><circle cx="1359.3" cy="327.6" r="2.68" style="fill:#3ea3ff"/><circle cx="655.74" cy="871.61" r="2.68" style="fill:#3ea3ff"/><circle cx="1429.7" cy="868.93" r="2.68" style="fill:#3ea3ff"/><circle cx="1645.83" cy="1051.94" r="2.68" style="fill:#3ea3ff"/><circle cx="692.31" cy="744.32" r="2.68" style="fill:#3ea3ff"/><circle cx="380.94" cy="968.74" r="2.68" style="fill:#3ea3ff"/><circle cx="1377.25" cy="186.43" r="2.68" style="fill:#3ea3ff"/><circle cx="1422.6" cy="10.13" r="2.68" style="fill:#3ea3ff"/></svg>