<?xml version="1.0" encoding="utf-8"?>
<!-- Generator: Adobe Illustrator 19.2.0, SVG Export Plug-In . SVG Version: 6.00 Build 0)  -->
<svg version="1.1" id="Layer_1" xmlns="http://www.w3.org/2000/svg" xmlns:xlink="http://www.w3.org/1999/xlink" x="0px" y="0px"
	 viewBox="0 0 332.6 100.6" style="enable-background:new 0 0 332.6 100.6;" xml:space="preserve">
<style type="text/css">
	.st0{fill:#3EA3FF;}
	.st1{fill:#FFFFFF;}
</style>
<g>
	<path class="st0" d="M0,52.6h42.5c3.5,0,6.3,2.8,6.3,6.3l-0.1,12.2c0,6,5,11,11,11h11v0h114.4c3.5,0,6.3,2.8,6.2,6.3v12.2h4.6
		l0.1-12.2c0-6-5-11-11-11h-34.4v0h-91c-3.5,0-6.3-2.8-6.2-6.3V58.9c0-3.5-1.7-6.6-4.2-8.6c2.6-2,4.2-5.1,4.2-8.7V29.5
		c0-3.5,2.8-6.4,6.3-6.4h10.9v0h52.8c6,0,11-4.9,11-11L134.4,0h-4.6v12.2c0.1,3.5-2.8,6.3-6.2,6.3H70.7v0.1H59.8c-6,0-11,4.9-11,11
		v12.1c0,3.5-2.8,6.4-6.3,6.4H0V52.6z"/>
	<g>
		<path class="st1" d="M81.1,58.5c0,4.2-3.5,7.7-7.7,7.7c-4.3,0-7.7-3.5-7.7-7.7V48.4h-5.2v-4.9h5.2v-8.9h5v8.9h5.2v4.9h-5.2v10.1
			c0,1.5,1.2,2.6,2.7,2.6s2.7-1.2,2.7-2.6v-2.5h5V58.5z"/>
		<path class="st1" d="M104.4,57.4H89.1c0.6,2.2,2.6,3.9,5.1,3.9c2,0,3.8-1.1,4.7-2.8l4.2,2.7c-1.8,3.1-5.2,5-8.8,5
			c-5.6,0-10.2-4.6-10.2-10.2v-2.2c0-5.7,4.6-10.3,10.2-10.3c5.7,0,10.3,4.6,10.3,10.3V57.4z M99.3,52.4c-0.6-2.2-2.7-3.9-5.1-3.9
			c-2.4,0-4.5,1.7-5.1,3.9H99.3z"/>
		<path class="st1" d="M122.8,51.5c-0.9-1.8-2.7-3.1-4.8-3.1c-2.9,0-5.3,2.4-5.3,5.3V56c0,2.8,2.3,5.3,5.3,5.3c2.1,0,3.9-1.3,4.8-3
			l4.5,2.1c-1.7,3.5-5.2,5.9-9.3,5.9c-5.7,0-10.2-4.6-10.2-10.2v-2.2c0-5.7,4.6-10.2,10.2-10.2c4.1,0,7.6,2.4,9.3,5.8L122.8,51.5z"
			/>
		<path class="st1" d="M150.2,66.2h-5V53.8c0-2.9-2.4-5.3-5.3-5.3s-5.3,2.3-5.3,5.3v12.5h-5V34.6h5v10.3c1.5-0.9,3.3-1.4,5.3-1.4
			c5.7,0,10.3,4.6,10.3,10.3V66.2z"/>
		<path class="st1" d="M165.3,52.9h-6.4v13.3h-5V34.6h11.4c5.1,0,9.2,4.1,9.2,9.2C174.5,48.8,170.4,52.9,165.3,52.9z M165.3,39.6
			h-6.4v8.3h6.4c2.3,0,4.2-1.9,4.2-4.1C169.5,41.5,167.6,39.6,165.3,39.6z"/>
		<path class="st1" d="M196,66.2h-5v-1.4c-1.6,0.9-3.4,1.4-5.3,1.4c-5.6,0-10.2-4.6-10.2-10.2v-2.2c0-5.7,4.6-10.3,10.2-10.3
			c1.9,0,3.7,0.5,5.3,1.4v-1.4h5V66.2z M191.1,53.8c0-2.9-2.4-5.3-5.3-5.3s-5.3,2.4-5.3,5.3V56c0,2.9,2.3,5.3,5.3,5.3
			s5.3-2.4,5.3-5.3V53.8z"/>
		<path class="st1" d="M219.4,58.5c0,4.2-3.5,7.7-7.7,7.7c-4.3,0-7.7-3.5-7.7-7.7V48.4h-5.2v-4.9h5.2v-8.9h5v8.9h5.2v4.9H209v10.1
			c0,1.5,1.2,2.6,2.7,2.6c1.5,0,2.7-1.2,2.7-2.6v-2.5h5V58.5z"/>
		<path class="st1" d="M242.7,66.2h-5V53.8c0-2.9-2.4-5.3-5.3-5.3s-5.3,2.3-5.3,5.3v12.5h-5V34.6h5v10.3c1.5-0.9,3.3-1.4,5.3-1.4
			c5.7,0,10.3,4.6,10.3,10.3V66.2z"/>
		<path class="st1" d="M266.1,34.6l-2.6,31.6h-5l-2.7-11.5l-2.7,11.5h-5l-2.6-31.6h5l1.2,15.3l1.5-6.4h5l1.5,6.4l1.3-15.3H266.1z"/>
		<path class="st1" d="M288.5,66.2h-5v-1.4c-1.6,0.9-3.4,1.4-5.3,1.4c-5.6,0-10.2-4.6-10.2-10.2v-2.2c0-5.7,4.6-10.3,10.2-10.3
			c1.9,0,3.7,0.5,5.3,1.4v-1.4h5V66.2z M283.6,53.8c0-2.9-2.4-5.3-5.3-5.3s-5.3,2.4-5.3,5.3V56c0,2.9,2.3,5.3,5.3,5.3
			s5.3-2.4,5.3-5.3V53.8z"/>
		<path class="st1" d="M311.9,43.5L301,75.2h-5.3l3.2-9.4l-7.6-22.3h5.3l4.9,14.6l5-14.6H311.9z"/>
		<path class="st1" d="M325.6,66.2h-4.9c-4,0-7.4-2.6-8.6-6.1l4.7-1.7c0.6,1.6,2.1,2.8,3.9,2.8h4.9c1,0,1.9-0.9,1.9-2
			c0-0.8-0.8-1.2-1.9-1.4c-1.3-0.2-1.6-0.4-3.4-0.6c-4.2-0.6-8.8-1.7-8.8-6.8c0-3.8,3.1-6.9,6.9-6.9h2.5c4,0,7.4,2.6,8.6,6.1
			l-4.7,1.7c-0.6-1.6-2.1-2.8-3.9-2.8h-2.5c-1.1,0-1.9,0.9-1.9,1.9c0,0.8,0.8,1.2,2,1.4c1.2,0.2,1.5,0.4,3.2,0.6
			c4.2,0.6,9,1.7,9,6.8C332.6,63.1,329.5,66.2,325.6,66.2z"/>
	</g>
</g>
</svg>
