<svg xmlns="http://www.w3.org/2000/svg" viewBox="0 0 94.77 75.32"><title>love</title><circle cx="28.36" cy="43.19" r="5.87" style="fill:#26323d"/><path d="M469.35-322.2a13.08,13.08,0,0,0-10.42,5.09,13.08,13.08,0,0,0-10.42-5.09h-0.13v5.59h0.13a7.63,7.63,0,0,1,7.67,7.59v12h5.5v-12a7.63,7.63,0,0,1,7.67-7.59h0.13v-5.59h-0.13Z" transform="translate(-430.57 370.35)" style="fill:#26323d"/><circle cx="65.02" cy="43.19" r="5.87" style="fill:#26323d"/><path d="M506-322.2a13.08,13.08,0,0,0-10.42,5.09,13.08,13.08,0,0,0-10.42-5.09H485v5.59h0.13a7.63,7.63,0,0,1,7.67,7.59v12h5.5v-12a7.63,7.63,0,0,1,7.67-7.59h0.13v-5.59H506Z" transform="translate(-430.57 370.35)" style="fill:#26323d"/><circle cx="28.36" cy="13.2" r="5.87" style="fill:#26323d"/><path d="M469.35-352.19a13.08,13.08,0,0,0-10.42,5.09,13.08,13.08,0,0,0-10.42-5.09h-0.13v5.59h0.13a7.63,7.63,0,0,1,7.67,7.59v2h5.5v-2a7.63,7.63,0,0,1,7.67-7.59h0.13v-5.59h-0.13Z" transform="translate(-430.57 370.35)" style="fill:#26323d"/><circle cx="65.02" cy="13.2" r="5.87" style="fill:#26323d"/><path d="M506-352.19a13.08,13.08,0,0,0-10.42,5.09,13.08,13.08,0,0,0-10.42-5.09H485v5.59h0.13a7.63,7.63,0,0,1,7.67,7.59v2h5.5v-2A7.63,7.63,0,0,1,506-346.6h0.13v-5.59H506Z" transform="translate(-430.57 370.35)" style="fill:#26323d"/><path d="M477.77-321.62a0.55,0.55,0,0,1-.34.13,0.49,0.49,0,0,1-.34-0.13l-7.78-7.81c-3.72-3.72-4-7.57-1.56-9.94a6.08,6.08,0,0,1,8.59,0,6.51,6.51,0,0,1,1.09,1.46,6.46,6.46,0,0,1,1.09-1.46,6.06,6.06,0,0,1,8.61,0c2.37,2.37,2.13,6.22-1.59,9.94Z" transform="translate(-430.57 370.35)" style="fill:#0a80ff"/><path d="M514.43-321.62a0.55,0.55,0,0,1-.34.13,0.49,0.49,0,0,1-.34-0.13L506-329.42c-3.72-3.72-4-7.57-1.56-9.94a6.08,6.08,0,0,1,8.59,0,6.51,6.51,0,0,1,1.09,1.46,6.46,6.46,0,0,1,1.09-1.46,6.06,6.06,0,0,1,8.61,0c2.37,2.37,2.13,6.22-1.59,9.94Z" transform="translate(-430.57 370.35)" style="fill:#92d0ff"/><path d="M442.15-321.62a0.55,0.55,0,0,1-.34.13,0.49,0.49,0,0,1-.34-0.13l-7.78-7.81c-3.72-3.72-4-7.57-1.56-9.94a6.08,6.08,0,0,1,8.59,0,6.51,6.51,0,0,1,1.09,1.46,6.46,6.46,0,0,1,1.09-1.46,6.06,6.06,0,0,1,8.61,0c2.37,2.37,2.13,6.22-1.59,9.94Z" transform="translate(-430.57 370.35)" style="fill:#92d0ff"/><path d="M477.77-295.16a0.55,0.55,0,0,1-.34.13,0.49,0.49,0,0,1-.34-0.13L469.31-303c-3.72-3.72-4-7.57-1.56-9.94a6.08,6.08,0,0,1,8.59,0,6.51,6.51,0,0,1,1.09,1.46,6.46,6.46,0,0,1,1.09-1.46,6.06,6.06,0,0,1,8.61,0c2.37,2.37,2.13,6.22-1.59,9.94Z" transform="translate(-430.57 370.35)" style="fill:#92d0ff"/><path d="M514.43-295.16a0.55,0.55,0,0,1-.34.13,0.49,0.49,0,0,1-.34-0.13L506-303c-3.72-3.72-4-7.57-1.56-9.94a6.08,6.08,0,0,1,8.59,0,6.51,6.51,0,0,1,1.09,1.46,6.46,6.46,0,0,1,1.09-1.46,6.06,6.06,0,0,1,8.61,0c2.37,2.37,2.13,6.22-1.59,9.94Z" transform="translate(-430.57 370.35)" style="fill:#92d0ff"/><path d="M442.15-295.16a0.55,0.55,0,0,1-.34.13,0.49,0.49,0,0,1-.34-0.13L433.7-303c-3.72-3.72-4-7.57-1.56-9.94a6.08,6.08,0,0,1,8.59,0,6.51,6.51,0,0,1,1.09,1.46,6.46,6.46,0,0,1,1.09-1.46,6.06,6.06,0,0,1,8.61,0c2.37,2.37,2.13,6.22-1.59,9.94Z" transform="translate(-430.57 370.35)" style="fill:#92d0ff"/><path d="M477.77-350.8a0.55,0.55,0,0,1-.34.13,0.49,0.49,0,0,1-.34-0.13l-7.78-7.81c-3.72-3.72-4-7.57-1.56-9.94a6.08,6.08,0,0,1,8.59,0,6.51,6.51,0,0,1,1.09,1.46,6.46,6.46,0,0,1,1.09-1.46,6.06,6.06,0,0,1,8.61,0c2.37,2.37,2.13,6.22-1.59,9.94Z" transform="translate(-430.57 370.35)" style="fill:#92d0ff"/><path d="M514.43-350.8a0.55,0.55,0,0,1-.34.13,0.49,0.49,0,0,1-.34-0.13L506-358.61c-3.72-3.72-4-7.57-1.56-9.94a6.08,6.08,0,0,1,8.59,0,6.51,6.51,0,0,1,1.09,1.46,6.46,6.46,0,0,1,1.09-1.46,6.06,6.06,0,0,1,8.61,0c2.37,2.37,2.13,6.22-1.59,9.94Z" transform="translate(-430.57 370.35)" style="fill:#92d0ff"/><path d="M442.15-350.8a0.55,0.55,0,0,1-.34.13,0.49,0.49,0,0,1-.34-0.13l-7.78-7.81c-3.72-3.72-4-7.57-1.56-9.94a6.08,6.08,0,0,1,8.59,0,6.51,6.51,0,0,1,1.09,1.46,6.46,6.46,0,0,1,1.09-1.46,6.06,6.06,0,0,1,8.61,0c2.37,2.37,2.13,6.22-1.59,9.94Z" transform="translate(-430.57 370.35)" style="fill:#92d0ff"/></svg>