<?xml version="1.0" encoding="utf-8"?>
<!-- Generator: Adobe Illustrator 19.2.0, SVG Export Plug-In . SVG Version: 6.00 Build 0)  -->
<svg version="1.1" id="Layer_1" xmlns="http://www.w3.org/2000/svg" xmlns:xlink="http://www.w3.org/1999/xlink" x="0px" y="0px"
	 viewBox="0 0 1279.9 1845" style="enable-background:new 0 0 1279.9 1845;" xml:space="preserve">
<style type="text/css">
	.st0{fill:#EDF4F7;}
</style>
<symbol  id="b" viewBox="-3.9 -11.1 7.8 22.2">
	<path class="st0" d="M0.7,2.8v3.6C0.7,8.3,1.4,9,3.4,9h0.5v2.1H3c-3.3,0-4.8-1.4-4.8-4.4V3.6c0-1.9-0.5-2.5-2.1-2.5v-2.7
		c1.5,0,2.1-0.6,2.1-2.5v-2.7c0-3,1.5-4.3,4.8-4.3h0.9V-9H3.4c-2,0-2.7,0.7-2.7,2.6v3.2c0,1.7-0.8,2.7-2.3,2.8v0.2
		C-0.1,0,0.7,1,0.7,2.8z"/>
</symbol>
<symbol  id="e" viewBox="-10.1 -12 20.2 24">
	<path class="st0" d="M5.7-2.6l-1,4.9h3.5L7.7,5.4H4.1L2.8,12h-3.2L1,5.4h-4.3L-4.7,12h-3.2l1.3-6.6h-3.5l0.6-3.1h3.6l1-4.9h-3.4
		l0.6-3.1h3.4l1.3-6.4h3.2l-1.2,6.4h4.4L4.5-12h3.2L6.4-5.6h3.7L9.5-2.6C9.5-2.6,5.7-2.6,5.7-2.6z M-3,2.6h4.8l1.1-5.4h-4.8L-3,2.6z
		"/>
</symbol>
<symbol  id="g" viewBox="-1.7 -1.7 3.4 3.4">
	<circle class="st0" cx="0" cy="0" r="1.7"/>
</symbol>
<title>mainbg</title>
<use xlink:href="#b"  width="7.8" height="22.2" x="-3.9" y="-11.1" transform="matrix(20.3213 8.4673 8.4673 -20.3213 911.2786 658.261)" style="overflow:visible;opacity:0.5;"/>
<use xlink:href="#b"  width="7.8" height="22.2" x="-3.9" y="-11.1" transform="matrix(19.8728 -9.467 -9.467 -19.8728 270.4861 1472.4637)" style="overflow:visible;opacity:0.5;"/>
<use xlink:href="#b"  width="7.8" height="22.2" x="-3.9" y="-11.1" transform="matrix(-15.1099 -16.0106 -16.0106 15.1099 876.531 335.8282)" style="overflow:visible;opacity:0.5;"/>
<use xlink:href="#e"  width="20.2" height="24" x="-10.1" y="-12" transform="matrix(17.3233 -7.2287 -7.2287 -17.3233 450.0853 736.0509)" style="overflow:visible;opacity:0.5;"/>
<use xlink:href="#e"  width="20.2" height="24" x="-10.1" y="-12" transform="matrix(15.6422 10.3691 10.3691 -15.6422 924.1625 1239.9991)" style="overflow:visible;opacity:0.5;"/>
<use xlink:href="#g"  width="3.4" height="3.4" x="-1.7" y="-1.7" transform="matrix(17.75 0 0 -17.75 1153.9725 1696.4175)" style="overflow:visible;opacity:0.5;"/>
<use xlink:href="#g"  width="3.4" height="3.4" x="-1.7" y="-1.7" transform="matrix(17.75 0 0 -17.75 1206.3434 1156.8645)" style="overflow:visible;opacity:0.5;"/>
<use xlink:href="#g"  width="3.4" height="3.4" x="-1.7" y="-1.7" transform="matrix(17.75 0 0 -17.75 819.7512 106.1512)" style="overflow:visible;opacity:0.5;"/>
<use xlink:href="#g"  width="3.4" height="3.4" x="-1.7" y="-1.7" transform="matrix(17.75 0 0 -17.75 117.1387 776.3787)" style="overflow:visible;opacity:0.5;"/>
<use xlink:href="#g"  width="3.4" height="3.4" x="-1.7" y="-1.7" transform="matrix(17.75 0 0 -17.75 1206.3434 485.7113)" style="overflow:visible;opacity:0.5;"/>
<use xlink:href="#g"  width="3.4" height="3.4" x="-1.7" y="-1.7" transform="matrix(17.75 0 0 -17.75 192.1512 1016.8317)" style="overflow:visible;opacity:0.5;"/>
<use xlink:href="#g"  width="3.4" height="3.4" x="-1.7" y="-1.7" transform="matrix(17.75 0 0 -17.75 178.0213 1657.8687)" style="overflow:visible;opacity:0.5;"/>
<use xlink:href="#g"  width="3.4" height="3.4" x="-1.7" y="-1.7" transform="matrix(17.75 0 0 -17.75 617.4912 1726.8586)" style="overflow:visible;opacity:0.5;"/>
<use xlink:href="#g"  width="3.4" height="3.4" x="-1.7" y="-1.7" transform="matrix(17.75 0 0 -17.75 507.6057 1283.3887)" style="overflow:visible;opacity:0.5;"/>
<use xlink:href="#g"  width="3.4" height="3.4" x="-1.7" y="-1.7" transform="matrix(17.75 0 0 -17.75 1141.8313 759.1788)" style="overflow:visible;opacity:0.5;"/>
<use xlink:href="#g"  width="3.4" height="3.4" x="-1.7" y="-1.7" transform="matrix(17.75 0 0 -17.75 1184.4138 189.6987)" style="overflow:visible;opacity:0.5;"/>
<use xlink:href="#g"  width="3.4" height="3.4" x="-1.7" y="-1.7" transform="matrix(17.75 0 0 -17.75 109.8813 476.6986)" style="overflow:visible;opacity:0.5;"/>
</svg>
