<?xml version="1.0" encoding="utf-8"?>
<!-- Generator: Adobe Illustrator 19.2.0, SVG Export Plug-In . SVG Version: 6.00 Build 0)  -->
<svg version="1.1" id="Layer_1" xmlns="http://www.w3.org/2000/svg" xmlns:xlink="http://www.w3.org/1999/xlink" x="0px" y="0px"
	 viewBox="0 0 1279.9 1845" style="enable-background:new 0 0 1279.9 1845;" xml:space="preserve">
<style type="text/css">
	.st0{fill-rule:evenodd;clip-rule:evenodd;fill:#EDF4F7;}
	.st1{fill:#EDF4F7;}
</style>
<symbol  id="New_Symbol_3" viewBox="-1.7 -1.7 3.4 3.4">
	<circle class="st0" cx="0" cy="0" r="1.7"/>
</symbol>
<symbol  id="New_Symbol_4" viewBox="-10.3 -26.6 21.4 46">
	
		<text transform="matrix(1 0 0 -1 -10.2881 -10.5859)" class="st1" style="font-family:'SFCompactDisplay-Semibold'; font-size:36px;">#</text>
</symbol>
<symbol  id="New_Symbol_5" viewBox="-5.4 -19.8 10.3 31.5">
	<g>
		<text transform="matrix(1 0 0 -1 -5.4131 -9.1523)" class="st1" style="font-family:'SFUIText-Medium'; font-size:24.5022px;">{</text>
	</g>
</symbol>
<g>
	<defs>
		<rect id="SVGID_1_" x="-0.2" y="0.9" width="1280" height="1849.1"/>
	</defs>
	<clipPath id="SVGID_2_">
		<use xlink:href="#SVGID_1_"  style="overflow:visible;"/>
	</clipPath>
	<g transform="matrix(1 0 0 1 6.103516e-05 0)" style="clip-path:url(#SVGID_2_);">
		
			<use xlink:href="#New_Symbol_5"  width="10.3" height="31.5" x="-5.4" y="-19.8" transform="matrix(15.3708 -6.4049 -6.4049 -15.3708 889.6707 1266.4634)" style="overflow:visible;"/>
	</g>
	<g style="clip-path:url(#SVGID_2_);">
		
			<use xlink:href="#New_Symbol_5"  width="10.3" height="31.5" x="-5.4" y="-19.8" transform="matrix(15.035 7.1578 7.1578 -15.035 303.2 320.0107)" style="overflow:visible;"/>
	</g>
	<g style="clip-path:url(#SVGID_2_);">
		
			<use xlink:href="#New_Symbol_5"  width="10.3" height="31.5" x="-5.4" y="-19.8" transform="matrix(4.4741 16.0396 16.0396 -4.4741 718.6793 1674.4429)" style="overflow:visible;"/>
	</g>
	<g transform="matrix(1 0 0 1 3.051758e-05 0)" style="clip-path:url(#SVGID_2_);">
		
			<use xlink:href="#New_Symbol_4"  width="21.4" height="46" x="-10.3" y="-26.6" transform="matrix(16.3212 6.8086 6.8086 -16.3212 467.9316 1052.946)" style="overflow:visible;"/>
	</g>
	<g style="clip-path:url(#SVGID_2_);">
		
			<use xlink:href="#New_Symbol_4"  width="21.4" height="46" x="-10.3" y="-26.6" transform="matrix(14.7393 -9.772 -9.772 -14.7393 882.8156 561.652)" style="overflow:visible;"/>
	</g>
	<g style="clip-path:url(#SVGID_2_);">
		
			<use xlink:href="#New_Symbol_3"  width="3.4" height="3.4" x="-1.7" y="-1.7" transform="matrix(17.7461 0 0 -17.7461 1251.7733 174.7487)" style="overflow:visible;"/>
	</g>
	<g style="clip-path:url(#SVGID_2_);">
		
			<use xlink:href="#New_Symbol_3"  width="3.4" height="3.4" x="-1.7" y="-1.7" transform="matrix(17.7461 0 0 -17.7461 1261.0995 607.9601)" style="overflow:visible;"/>
	</g>
	<g style="clip-path:url(#SVGID_2_);">
		
			<use xlink:href="#New_Symbol_3"  width="3.4" height="3.4" x="-1.7" y="-1.7" transform="matrix(17.7461 0 0 -17.7461 379.7068 1805.4891)" style="overflow:visible;"/>
	</g>
	<g transform="matrix(1 0 0 1 0 -1.220703e-04)" style="clip-path:url(#SVGID_2_);">
		
			<use xlink:href="#New_Symbol_3"  width="3.4" height="3.4" x="-1.7" y="-1.7" transform="matrix(17.7461 0 0 -17.7461 1216.0148 1518.3796)" style="overflow:visible;"/>
	</g>
	<g style="clip-path:url(#SVGID_2_);">
		
			<use xlink:href="#New_Symbol_3"  width="3.4" height="3.4" x="-1.7" y="-1.7" transform="matrix(17.7461 0 0 -17.7461 875.4789 1858.7557)" style="overflow:visible;"/>
	</g>
	<g style="clip-path:url(#SVGID_2_);">
		
			<use xlink:href="#New_Symbol_3"  width="3.4" height="3.4" x="-1.7" y="-1.7" transform="matrix(17.7461 0 0 -17.7461 9.944566e-02 903.5095)" style="overflow:visible;"/>
	</g>
	<g transform="matrix(1 0 0 1 0 1.525879e-05)" style="clip-path:url(#SVGID_2_);">
		
			<use xlink:href="#New_Symbol_3"  width="3.4" height="3.4" x="-1.7" y="-1.7" transform="matrix(17.7461 0 0 -17.7461 177.9694 192.8964)" style="overflow:visible;"/>
	</g>
	<g style="clip-path:url(#SVGID_2_);">
		
			<use xlink:href="#New_Symbol_3"  width="3.4" height="3.4" x="-1.7" y="-1.7" transform="matrix(17.7461 0 0 -17.7461 617.4474 123.8999)" style="overflow:visible;"/>
	</g>
	<g style="clip-path:url(#SVGID_2_);">
		
			<use xlink:href="#New_Symbol_3"  width="3.4" height="3.4" x="-1.7" y="-1.7" transform="matrix(17.7461 0 0 -17.7461 375.9595 665.3728)" style="overflow:visible;"/>
	</g>
	<g style="clip-path:url(#SVGID_2_);">
		
			<use xlink:href="#New_Symbol_3"  width="3.4" height="3.4" x="-1.7" y="-1.7" transform="matrix(17.7461 0 0 -17.7461 1141.7827 1091.5815)" style="overflow:visible;"/>
	</g>
	<g style="clip-path:url(#SVGID_2_);">
		
			<use xlink:href="#New_Symbol_3"  width="3.4" height="3.4" x="-1.7" y="-1.7" transform="matrix(17.7461 0 0 -17.7461 624.3087 1447.0637)" style="overflow:visible;"/>
	</g>
	<g style="clip-path:url(#SVGID_2_);">
		
			<use xlink:href="#New_Symbol_3"  width="3.4" height="3.4" x="-1.7" y="-1.7" transform="matrix(17.7461 0 0 -17.7461 109.8344 1528.0597)" style="overflow:visible;"/>
	</g>
</g>
</svg>
