<svg xmlns="http://www.w3.org/2000/svg" xmlns:xlink="http://www.w3.org/1999/xlink" viewBox="0 0 1279.92 1845"><defs><clipPath id="a"><rect x="-0.15" y="0.87" width="1280" height="1849.07" style="fill:none"/></clipPath><symbol id="b" viewBox="0 0 10.3 31.48"><path d="M6.07,16.62v3.6c0,1.89.74,2.58,2.7,2.58H9.31V24.9H8.4c-3.29,0-4.8-1.36-4.8-4.39V17.43c0-1.88-.53-2.5-2.08-2.5V12.19c1.55,0,2.08-.63,2.08-2.52V7C3.6,4,5.1,2.7,8.4,2.7H9.31V4.79H8.77c-2,0-2.7.68-2.7,2.6v3.23c0,1.73-.75,2.69-2.27,2.83v0.2C5.29,13.8,6.07,14.83,6.07,16.62Z" style="fill:#edf4f7"/></symbol><symbol id="e" viewBox="0 0 21.41 46.05"><path d="M16.66,15.44l-1,4.87h3.53L18.6,23.42H15L13.73,30H10.55l1.32-6.57H7.52L6.19,30H3l1.32-6.57H0.83l0.62-3.11H5l1-4.87H2.58l0.6-3.09H6.57L7.84,6H11L9.76,12.35h4.36L15.38,6h3.18L17.3,12.35H21l-0.6,3.09H16.66ZM7.88,20.56h4.78l1.09-5.36H9Z" style="fill:#edf4f7"/></symbol><symbol id="g" viewBox="0 0 3.42 3.42"><circle cx="1.71" cy="1.71" r="1.71" style="fill:#edf4f7"/></symbol></defs><title>mainbg</title><g style="opacity:0.5"><g style="clip-path:url(#a)"><use width="10.3" height="31.48" transform="translate(731.33 1120.83) rotate(-22.62) scale(16.65)" xlink:href="#b"/><use width="10.3" height="31.48" transform="matrix(15.03, 7.16, -7.16, 15.03, 305.78, 104.9)" xlink:href="#b"/><use width="10.3" height="31.48" transform="translate(882.61 1535.14) rotate(74.41) scale(16.65)" xlink:href="#b"/><use width="21.41" height="46.05" transform="matrix(16.32, 6.81, -6.81, 16.32, 432.18, 666.09)" xlink:href="#e"/><use width="21.41" height="46.05" transform="translate(541.49 376.08) rotate(-33.54) scale(17.68)" xlink:href="#e"/><use width="3.43" height="3.43" transform="translate(1221.38 144.36) scale(17.75)" xlink:href="#g"/><use width="3.43" height="3.43" transform="translate(1230.71 577.57) scale(17.75)" xlink:href="#g"/><use width="3.43" height="3.43" transform="translate(349.31 1775.1) scale(17.75)" xlink:href="#g"/><use width="3.43" height="3.43" transform="translate(1185.62 1487.99) scale(17.75)" xlink:href="#g"/><use width="3.43" height="3.43" transform="translate(845.09 1828.36) scale(17.75)" xlink:href="#g"/><use width="3.43" height="3.43" transform="translate(-30.29 873.12) scale(17.75)" xlink:href="#g"/><use width="3.43" height="3.43" transform="translate(147.58 162.5) scale(17.75)" xlink:href="#g"/><use width="3.43" height="3.43" transform="translate(587.05 93.51) scale(17.75)" xlink:href="#g"/><use width="3.43" height="3.43" transform="translate(345.57 634.98) scale(17.75)" xlink:href="#g"/><use width="3.43" height="3.43" transform="translate(1111.39 1061.19) scale(17.75)" xlink:href="#g"/><use width="3.43" height="3.43" transform="translate(593.92 1416.67) scale(17.75)" xlink:href="#g"/><use width="3.43" height="3.43" transform="translate(79.44 1497.67) scale(17.75)" xlink:href="#g"/></g></g></svg>