<svg xmlns="http://www.w3.org/2000/svg" viewBox="0 0 70.44 67.03"><title>pathways</title><g style="opacity:0.5"><polygon points="23.8 60.1 60.15 39.18 60.6 42.63 4.64 24.32 1.5 23.3 4.7 22.58 47.15 13.14 47.34 13.93 5.11 24.34 5.17 22.6 61.73 38.98 65.6 40.1 62.18 42.42 27.52 66.03 23.8 60.1" style="fill:#a0adb5"/></g><ellipse cx="60.16" cy="40.8" rx="8.73" ry="2.19" style="fill:#92d0ff"/><ellipse cx="5.91" cy="23.46" rx="5.02" ry="1.26" style="fill:#92d0ff"/><ellipse cx="46.24" cy="13.54" rx="2.89" ry="0.72" style="fill:#92d0ff"/><ellipse cx="27.95" cy="63" rx="16.69" ry="4.03" style="fill:#92d0ff"/><circle cx="27.95" cy="10.27" r="10.27" style="fill:#26323d"/><path d="M361.2-341.05A22.9,22.9,0,0,0,343-332.15a22.9,22.9,0,0,0-18.25-8.91h-0.22v9.78h0.22A13.37,13.37,0,0,1,338.13-318v21.05h9.64V-318a13.37,13.37,0,0,1,13.43-13.29h0.22v-9.78H361.2Z" transform="translate(-315 360)" style="fill:#26323d"/><line x1="60.16" y1="40.8" x2="60.16" y2="11.28" style="fill:none;stroke:#26323d;stroke-miterlimit:10;stroke-width:3px"/><circle cx="60.16" cy="10.28" r="10.27" style="fill:#0a80ff"/><line x1="5.91" y1="6.48" x2="5.91" y2="23.46" style="fill:none;stroke:#26323d;stroke-miterlimit:10;stroke-width:1.725570023059845px"/><circle cx="5.91" cy="5.91" r="5.91" style="fill:#0a80ff"/><line x1="46.24" y1="13.54" x2="46.24" y2="3.77" style="fill:none;stroke:#26323d;stroke-miterlimit:10;stroke-width:0.9925306348275846px"/><circle cx="46.24" cy="3.44" r="3.4" style="fill:#0a80ff"/></svg>